# Blender 5.0.1
# www.blender.org
mtllib T2-2-2-2.mtl
o T2-2-2-2.001
v -0.304800 -0.304800 -0.304800
v -0.304800 -0.304800 0.304800
v -0.304800 0.304800 -0.304800
v -0.304800 0.304800 0.304800
v 0.304800 -0.304800 -0.304800
v 0.304800 0.304800 -0.304800
vn -1.0000 -0.0000 -0.0000
vn -0.0000 -0.0000 -1.0000
vn -0.0000 -1.0000 -0.0000
vn -0.0000 1.0000 -0.0000
vn 0.7071 -0.0000 0.7071
vt 0.375000 0.000000
vt 0.625000 0.250000
vt 0.375000 0.250000
vt 0.125000 0.500000
vt 0.375000 0.750000
vt 0.125000 0.750000
vt 0.625000 0.000000
vt 0.375000 0.500000
s 0
f 1/1/1 4/2/1 3/3/1
f 3/4/2 5/5/2 1/6/2
f 2/7/3 1/6/3 5/5/3
f 3/4/4 4/2/4 6/8/4
f 4/2/5 5/5/5 6/8/5
f 1/1/1 2/7/1 4/2/1
f 3/4/2 6/8/2 5/5/2
f 4/2/5 2/7/5 5/5/5
