# Blender 5.0.1
# www.blender.org
mtllib level-1_roof.mtl
o roof
v -1.000000 2.000000 1.000000
v -1.000000 2.000000 -1.000000
v 1.000000 2.000000 1.000000
v 1.000000 2.000000 -1.000000
v -1.000000 2.004288 1.000000
v -1.000000 3.000000 0.004288
v -1.000000 3.000000 -0.004288
v -1.000000 2.004288 -1.000000
v 1.000000 3.000000 0.004288
v 1.000000 2.004288 1.000000
v 1.000000 2.004288 -1.000000
v 1.000000 3.000000 -0.004288
vn -0.0000 -1.0000 -0.0000
vn -0.0000 0.7071 -0.7071
vn -0.0000 0.7071 0.7071
vn -0.0000 -0.0000 1.0000
vn -1.0000 -0.0000 -0.0000
vn -0.0000 1.0000 -0.0000
vn -0.0000 -0.0000 -1.0000
vn 1.0000 -0.0000 -0.0000
vt 0.499611 0.499611
vt 0.000389 0.000389
vt 0.499611 0.000389
vt 0.500389 0.000389
vt 0.748930 0.499611
vt 0.500389 0.499611
vt 0.000389 0.500389
vt 0.248930 0.999611
vt 0.000389 0.999611
vt 0.250000 0.500389
vt 0.250000 0.999611
vt 0.499318 0.999611
vt 0.250778 0.748930
vt 0.500389 0.500389
vt 0.752918 0.499611
vt 0.750778 0.000389
vt 0.752918 0.000389
vt 0.750000 0.000389
vt 0.750000 0.499611
vt 0.749707 0.999611
vt 0.501166 0.748930
vt 0.750778 0.500389
vt 0.000389 0.499611
vt 0.748930 0.000389
vt 0.248930 0.500389
vt 0.500389 0.999611
vt 0.250778 0.751070
vt 0.499319 0.500389
vt 0.750778 0.499611
vt 0.750778 0.999611
vt 0.501166 0.751070
vt 0.749707 0.500389
s 0
usemtl house-roof-v2-1
f 4/1/1 1/2/1 2/3/1
f 12/4/2 8/5/2 7/6/2
f 6/7/3 10/8/3 9/9/3
f 10/8/4 1/10/4 3/11/4
f 5/12/5 7/13/5 2/14/5
f 7/15/6 9/16/6 12/17/6
f 8/5/7 4/18/7 2/19/7
f 11/20/8 9/21/8 3/22/8
f 4/1/1 3/23/1 1/2/1
f 12/4/2 11/24/2 8/5/2
f 6/7/3 5/25/3 10/8/3
f 10/8/4 5/25/4 1/10/4
f 2/14/5 1/26/5 5/12/5
f 5/12/5 6/27/5 7/13/5
f 7/13/5 8/28/5 2/14/5
f 7/15/6 6/29/6 9/16/6
f 8/5/7 11/24/7 4/18/7
f 3/22/8 4/30/8 11/20/8
f 11/20/8 12/31/8 9/21/8
f 9/21/8 10/32/8 3/22/8
