# Blender 5.0.1
# www.blender.org
mtllib level-1.mtl
o Cube
v 1.000000 2.000000 -1.000000
v 1.000000 0.000000 -1.000000
v 1.000000 2.000000 1.000000
v 1.000000 0.000000 1.000000
v -1.000000 2.000000 -1.000000
v -1.000000 0.000000 -1.000000
v -1.000000 2.000000 1.000000
v -1.000000 0.000000 1.000000
v -1.000000 0.000000 0.000000
v 1.000000 3.000000 0.000000
v -1.000000 3.000000 0.000000
v 1.000000 0.000000 0.000000
v 1.000000 1.966424 -1.000000
v -1.000000 1.966424 1.000000
v 1.000000 1.966424 1.000000
v -1.000000 1.966424 -1.000000
v 1.000000 1.966424 0.000000
v -1.000000 1.966424 0.000000
vn -0.0000 0.7071 0.7071
vn -0.0000 -0.0000 1.0000
vn -1.0000 -0.0000 -0.0000
vn -0.0000 -1.0000 -0.0000
vn 1.0000 -0.0000 -0.0000
vn -0.0000 -0.0000 -1.0000
vn -0.0000 0.7071 -0.7071
vt 0.315745 0.017588
vt 0.017588 0.166667
vt 0.017588 0.017588
vt 0.315745 0.171672
vt 0.017588 0.171672
vt 0.500000 0.171672
vt 0.649078 0.166667
vt 0.649078 0.171672
vt 0.833333 0.315745
vt 0.684255 0.017588
vt 0.833333 0.017588
vt 0.166667 0.654084
vt 0.315745 0.649078
vt 0.315745 0.654084
vt 0.350922 0.649078
vt 0.649078 0.654084
vt 0.350922 0.654084
vt 0.017588 0.649078
vt 0.017588 0.654084
vt 0.982412 0.315745
vt 0.982412 0.017588
vt 0.350922 0.166667
vt 0.350922 0.171672
vt 0.649078 0.500000
vt 0.649078 0.649078
vt 0.500000 0.464824
vt 0.350922 0.464824
vt 0.166667 0.947235
vt 0.017588 0.947235
vt 0.649078 0.947235
vt 0.350922 0.947235
vt 0.315745 0.947235
vt 0.649078 0.464824
vt 0.315745 0.464824
vt 0.017588 0.464824
vt 0.315745 0.166667
vt 0.500000 0.017588
vt 0.684255 0.315745
vt 0.166667 0.500000
vt 0.350922 0.500000
s 0
usemtl Material
f 11/1/1 3/2/1 10/3/1
f 3/2/2 14/4/2 15/5/2
f 18/6/3 5/7/3 16/8/3
f 12/9/4 8/10/4 9/11/4
f 17/12/5 3/13/5 15/14/5
f 5/15/6 13/16/6 16/17/6
f 1/18/5 17/12/5 13/19/5
f 2/20/4 9/11/4 6/21/4
f 7/22/3 18/6/3 14/23/3
f 5/15/7 10/24/7 1/25/7
f 14/23/3 9/26/3 8/27/3
f 13/19/5 12/28/5 2/29/5
f 16/17/6 2/30/6 6/31/6
f 17/12/5 4/32/5 12/28/5
f 18/6/3 6/33/3 9/26/3
f 15/5/2 8/34/2 4/35/2
f 11/1/1 7/36/1 3/2/1
f 3/2/2 7/36/2 14/4/2
f 18/6/3 11/37/3 5/7/3
f 12/9/4 4/38/4 8/10/4
f 17/12/5 10/39/5 3/13/5
f 5/15/6 1/25/6 13/16/6
f 1/18/5 10/39/5 17/12/5
f 2/20/4 12/9/4 9/11/4
f 7/22/3 11/37/3 18/6/3
f 5/15/7 11/40/7 10/24/7
f 14/23/3 18/6/3 9/26/3
f 13/19/5 17/12/5 12/28/5
f 16/17/6 13/16/6 2/30/6
f 17/12/5 15/14/5 4/32/5
f 18/6/3 16/8/3 6/33/3
f 15/5/2 14/4/2 8/34/2
