# Blender 5.0.1
# www.blender.org
mtllib center.mtl
o Center
v 2.000000 4.000000 -2.000000
v 2.000000 2.000000 -2.000000
v 2.000000 4.000000 0.000000
v 2.000000 2.000000 0.000000
v 0.000000 4.000000 -2.000000
v 0.000000 2.000000 -2.000000
v 0.000000 4.000000 0.000000
v 0.000000 2.000000 0.000000
v 0.000000 3.500000 0.000000
v 2.000000 3.500000 -2.000000
v 2.000000 3.500000 0.000000
v 0.000000 3.500000 -2.000000
v 1.000000 3.500000 -2.000000
v 1.000000 3.500000 0.000000
v 0.250000 3.500000 -2.000000
v 0.250000 3.500000 0.000000
v 0.750000 3.500000 0.000000
v 0.750000 3.500000 -2.000000
v 1.250000 3.500000 -2.000000
v 1.250000 3.500000 0.000000
v 1.750000 3.500000 0.000000
v 1.750000 3.500000 -2.000000
v 2.000000 3.250000 -2.000000
v 2.000000 3.250000 0.000000
v 0.000000 3.250000 -2.000000
v 1.000000 3.250000 -2.000000
v 1.000000 3.250000 0.000000
v 0.250000 3.250000 -2.000000
v 0.250000 3.250000 0.000000
v 0.750000 3.250000 0.000000
v 0.750000 3.250000 -2.000000
v 1.250000 3.250000 -2.000000
v 1.250000 3.250000 0.000000
v 1.750000 3.250000 0.000000
v 1.750000 3.250000 -2.000000
v 0.000000 3.250000 0.000000
v 0.000000 3.750000 0.000000
v 2.000000 3.750000 -2.000000
v 2.000000 3.750000 0.000000
v 0.000000 3.750000 -2.000000
v 1.000000 3.750000 -2.000000
v 1.000000 3.750000 0.000000
v 0.250000 3.750000 -2.000000
v 0.250000 3.750000 0.000000
v 0.750000 3.750000 0.000000
v 0.750000 3.750000 -2.000000
v 1.250000 3.750000 -2.000000
v 1.250000 3.750000 0.000000
v 1.750000 3.750000 0.000000
v 1.750000 3.750000 -2.000000
v 2.000000 2.495799 -2.000000
v 2.000000 2.495799 0.000000
v 0.000000 2.495799 -2.000000
v 1.000000 2.495799 -2.000000
v 0.250000 2.495799 -2.000000
v 0.250000 2.495799 0.000000
v 0.750000 2.495799 0.000000
v 0.750000 2.495799 -2.000000
v 1.250000 2.495799 -2.000000
v 1.250000 2.495799 0.000000
v 1.750000 2.495799 0.000000
v 1.750000 2.495799 -2.000000
v 0.000000 2.495799 0.000000
v 0.000000 2.747899 0.000000
v 2.000000 2.747899 -2.000000
v 2.000000 2.747899 0.000000
v 0.000000 2.747899 -2.000000
v 1.000000 2.747899 -2.000000
v 0.250000 2.747899 -2.000000
v 0.250000 2.747899 0.000000
v 0.750000 2.747899 0.000000
v 0.750000 2.747899 -2.000000
v 1.250000 2.747899 -2.000000
v 1.250000 2.747899 0.000000
v 1.750000 2.747899 0.000000
v 1.750000 2.747899 -2.000000
v 2.000000 2.243626 -2.000000
v 2.000000 2.243626 0.000000
v 0.000000 2.243626 -2.000000
v 1.000000 2.243626 -2.000000
v 0.250000 2.243626 -2.000000
v 0.250000 2.243626 0.000000
v 0.750000 2.243626 0.000000
v 0.750000 2.243626 -2.000000
v 1.250000 2.243626 -2.000000
v 1.250000 2.243626 0.000000
v 1.750000 2.243626 0.000000
v 1.750000 2.243626 -2.000000
v 0.000000 2.243626 0.000000
vn -1.0000 -0.0000 -0.0000
vn -0.0000 -0.0000 -1.0000
vn -0.0000 -0.0000 1.0000
vn -0.0000 1.0000 -0.0000
vn -0.0000 -1.0000 -0.0000
vn 1.0000 -0.0000 -0.0000
vt 0.292456 0.332973
vt 0.250519 0.000360
vt 0.292457 0.000360
vt 0.667027 0.000360
vt 0.708603 0.166667
vt 0.708603 0.208243
vt 0.000360 0.332973
vt 0.041937 0.499280
vt 0.041937 0.540856
vt 0.333693 0.332973
vt 0.666306 0.000360
vt 0.666306 0.332973
vt 0.332973 0.998919
vt 0.000360 0.666306
vt 0.332973 0.666306
vt 0.625790 0.998919
vt 0.583852 0.666306
vt 0.625790 0.666306
vt 0.208593 0.624009
vt 0.125090 0.624009
vt 0.125090 0.540856
vt 0.791757 0.291396
vt 0.875259 0.208243
vt 0.875259 0.291396
vt 0.208593 0.457703
vt 0.250519 0.540856
vt 0.208593 0.540856
vt 0.750180 0.041937
vt 0.791757 0.125090
vt 0.750180 0.125090
vt 0.083513 0.665586
vt 0.125090 0.665586
vt 0.083513 0.540856
vt 0.083513 0.624009
vt 0.750180 0.166667
vt 0.791757 0.166667
vt 0.750180 0.208243
vt 0.750180 0.291396
vt 0.083513 0.499280
vt 0.125090 0.457703
vt 0.125090 0.499280
vt 0.083513 0.374550
vt 0.083513 0.457703
vt 0.750180 0.332973
vt 0.791757 0.332973
vt 0.791757 0.208243
vt 0.791757 0.000360
vt 0.791757 0.041937
vt 0.125090 0.332973
vt 0.125090 0.374550
vt 0.041937 0.665586
vt 0.708603 0.332973
vt 0.708603 0.041937
vt 0.750180 0.000360
vt 0.041937 0.374550
vt 0.083513 0.332973
vt 0.250519 0.374550
vt 0.292456 0.374550
vt 0.917185 0.041937
vt 0.959123 0.000360
vt 0.959123 0.041937
vt 0.917185 0.208243
vt 0.959123 0.166667
vt 0.959123 0.208243
vt 0.292456 0.624009
vt 0.250519 0.624009
vt 0.959123 0.125090
vt 0.917185 0.125090
vt 0.959123 0.291396
vt 0.917185 0.291396
vt 0.292456 0.457703
vt 0.250519 0.457703
vt 0.917185 0.332973
vt 0.959123 0.332973
vt 0.917185 0.166667
vt 0.250519 0.665586
vt 0.292456 0.665586
vt 0.208593 0.374550
vt 0.250519 0.332973
vt 0.875259 0.041937
vt 0.917185 0.000360
vt 0.292456 0.540856
vt 0.875259 0.332973
vt 0.875259 0.166667
vt 0.208593 0.665586
vt 0.332973 0.332973
vt 0.999640 0.000360
vt 0.041937 0.332973
vt 0.000360 0.000360
vt 0.041937 0.000360
vt 0.083513 0.000360
vt 0.125090 0.000360
vt 0.208593 0.332973
vt 0.208593 0.000360
vt 0.332973 0.000360
vt 0.667027 0.332973
vt 0.708603 0.000360
vt 0.708603 0.125090
vt 0.708603 0.291396
vt 0.000360 0.665586
vt 0.041937 0.457703
vt 0.041937 0.624009
vt 0.333693 0.000360
vt 0.000360 0.998919
vt 0.375270 0.998919
vt 0.333694 0.998919
vt 0.333694 0.666306
vt 0.375270 0.666306
vt 0.416847 0.998919
vt 0.416847 0.666306
vt 0.458423 0.998919
vt 0.458423 0.666306
vt 0.541926 0.998919
vt 0.541926 0.666306
vt 0.583852 0.998919
vt 0.666306 0.666306
vt 0.666306 0.998919
vt 0.875259 0.000360
vt 0.875259 0.125090
vt 0.332973 0.665586
vt 0.999640 0.332973
s 0
usemtl l1-middle-1
f 89/1/1 53/2/1 79/3/1
f 1/4/2 41/5/2 46/6/2
f 7/7/3 42/8/3 48/9/3
f 7/10/4 1/11/4 5/12/4
f 2/13/5 8/14/5 6/15/5
f 77/16/6 52/17/6 78/18/6
f 75/19/3 34/20/3 33/21/3
f 28/22/2 72/23/2 69/24/2
f 71/25/3 60/26/3 74/27/3
f 22/28/2 32/29/2 19/30/2
f 11/31/3 34/20/3 24/32/3
f 20/33/3 34/20/3 21/34/3
f 13/35/2 32/29/2 26/36/2
f 18/37/2 28/22/2 15/38/2
f 14/39/3 30/40/3 27/41/3
f 16/42/3 30/40/3 17/43/3
f 12/44/2 28/22/2 25/45/2
f 20/33/3 27/41/3 33/21/3
f 18/37/2 26/36/2 31/46/2
f 22/28/2 23/47/2 35/48/2
f 16/42/3 36/49/3 29/50/3
f 39/51/3 21/34/3 11/31/3
f 41/5/2 19/30/2 13/35/2
f 42/8/3 17/43/3 14/39/3
f 40/52/2 15/38/2 12/44/2
f 48/9/3 14/39/3 20/33/3
f 46/6/2 13/35/2 18/37/2
f 50/53/2 10/54/2 22/28/2
f 44/55/3 9/56/3 16/42/3
f 56/57/3 89/1/3 82/58/3
f 62/59/2 77/60/2 88/61/2
f 58/62/2 80/63/2 84/64/2
f 60/26/3 87/65/3 61/66/3
f 62/59/2 85/67/2 59/68/2
f 58/62/2 81/69/2 55/70/2
f 56/57/3 83/71/3 57/72/3
f 53/73/2 81/69/2 79/74/2
f 54/75/2 85/67/2 80/63/2
f 52/76/3 87/65/3 78/77/3
f 70/78/3 63/79/3 56/57/3
f 76/80/2 51/81/2 62/59/2
f 72/23/2 54/75/2 58/62/2
f 57/72/3 86/82/3 60/26/3
f 67/83/2 55/70/2 53/73/2
f 68/84/2 59/68/2 54/75/2
f 66/85/3 61/66/3 52/76/3
f 8/86/3 86/82/3 83/71/3
f 84/64/2 80/63/2 2/87/2
f 37/88/1 7/7/1 5/89/1
f 37/88/1 5/89/1 40/90/1
f 9/56/1 37/88/1 40/90/1
f 9/56/1 40/90/1 12/91/1
f 36/49/1 9/56/1 12/91/1
f 36/49/1 12/91/1 25/92/1
f 64/93/1 36/49/1 25/92/1
f 64/93/1 25/92/1 67/94/1
f 63/79/1 64/93/1 67/94/1
f 63/79/1 67/94/1 53/2/1
f 6/95/1 8/86/1 89/1/1
f 89/1/1 63/79/1 53/2/1
f 79/3/1 6/95/1 89/1/1
f 40/52/2 5/96/2 1/4/2
f 1/4/2 38/97/2 50/53/2
f 1/4/2 50/53/2 47/98/2
f 43/99/2 40/52/2 1/4/2
f 46/6/2 43/99/2 1/4/2
f 1/4/2 47/98/2 41/5/2
f 39/51/3 3/100/3 7/7/3
f 7/7/3 37/88/3 44/55/3
f 7/7/3 44/55/3 45/101/3
f 49/102/3 39/51/3 7/7/3
f 48/9/3 49/102/3 7/7/3
f 7/7/3 45/101/3 42/8/3
f 7/10/4 3/103/4 1/11/4
f 2/13/5 4/104/5 8/14/5
f 38/105/6 1/106/6 3/107/6
f 38/105/6 3/107/6 39/108/6
f 10/109/6 38/105/6 39/108/6
f 10/109/6 39/108/6 11/110/6
f 23/111/6 10/109/6 11/110/6
f 23/111/6 11/110/6 24/112/6
f 65/113/6 23/111/6 24/112/6
f 65/113/6 24/112/6 66/114/6
f 51/115/6 65/113/6 66/114/6
f 51/115/6 66/114/6 52/17/6
f 4/116/6 2/117/6 77/16/6
f 77/16/6 51/115/6 52/17/6
f 78/18/6 4/116/6 77/16/6
f 29/50/3 36/49/3 64/93/3
f 29/50/3 64/93/3 70/78/3
f 30/40/3 29/50/3 70/78/3
f 30/40/3 70/78/3 71/25/3
f 27/41/3 30/40/3 71/25/3
f 27/41/3 71/25/3 74/27/3
f 33/21/3 27/41/3 74/27/3
f 75/19/3 66/85/3 24/32/3
f 33/21/3 74/27/3 75/19/3
f 75/19/3 24/32/3 34/20/3
f 35/48/2 23/47/2 65/118/2
f 35/48/2 65/118/2 76/80/2
f 32/29/2 35/48/2 76/80/2
f 32/29/2 76/80/2 73/119/2
f 26/36/2 32/29/2 73/119/2
f 26/36/2 73/119/2 68/84/2
f 31/46/2 26/36/2 68/84/2
f 31/46/2 68/84/2 72/23/2
f 67/83/2 25/45/2 28/22/2
f 28/22/2 31/46/2 72/23/2
f 69/24/2 67/83/2 28/22/2
f 71/25/3 57/72/3 60/26/3
f 47/98/2 50/53/2 22/28/2
f 22/28/2 35/48/2 32/29/2
f 19/30/2 47/98/2 22/28/2
f 11/31/3 21/34/3 34/20/3
f 49/102/3 48/9/3 20/33/3
f 20/33/3 33/21/3 34/20/3
f 21/34/3 49/102/3 20/33/3
f 13/35/2 19/30/2 32/29/2
f 43/99/2 46/6/2 18/37/2
f 18/37/2 31/46/2 28/22/2
f 15/38/2 43/99/2 18/37/2
f 14/39/3 17/43/3 30/40/3
f 45/101/3 44/55/3 16/42/3
f 16/42/3 29/50/3 30/40/3
f 17/43/3 45/101/3 16/42/3
f 12/44/2 15/38/2 28/22/2
f 20/33/3 14/39/3 27/41/3
f 18/37/2 13/35/2 26/36/2
f 22/28/2 10/54/2 23/47/2
f 16/42/3 9/56/3 36/49/3
f 39/51/3 49/102/3 21/34/3
f 41/5/2 47/98/2 19/30/2
f 42/8/3 45/101/3 17/43/3
f 40/52/2 43/99/2 15/38/2
f 48/9/3 42/8/3 14/39/3
f 46/6/2 41/5/2 13/35/2
f 50/53/2 38/97/2 10/54/2
f 44/55/3 37/88/3 9/56/3
f 56/57/3 63/79/3 89/1/3
f 62/59/2 51/81/2 77/60/2
f 58/62/2 54/75/2 80/63/2
f 61/66/3 75/19/3 74/27/3
f 60/26/3 86/82/3 87/65/3
f 61/66/3 74/27/3 60/26/3
f 59/68/2 73/119/2 76/80/2
f 62/59/2 88/61/2 85/67/2
f 59/68/2 76/80/2 62/59/2
f 55/70/2 69/24/2 72/23/2
f 58/62/2 84/64/2 81/69/2
f 55/70/2 72/23/2 58/62/2
f 57/72/3 71/25/3 70/78/3
f 56/57/3 82/58/3 83/71/3
f 57/72/3 70/78/3 56/57/3
f 53/73/2 55/70/2 81/69/2
f 54/75/2 59/68/2 85/67/2
f 52/76/3 61/66/3 87/65/3
f 70/78/3 64/93/3 63/79/3
f 76/80/2 65/118/2 51/81/2
f 72/23/2 68/84/2 54/75/2
f 57/72/3 83/71/3 86/82/3
f 67/83/2 69/24/2 55/70/2
f 68/84/2 73/119/2 59/68/2
f 66/85/3 75/19/3 61/66/3
f 82/58/3 89/1/3 8/86/3
f 8/86/3 4/120/3 78/77/3
f 8/86/3 78/77/3 87/65/3
f 83/71/3 82/58/3 8/86/3
f 8/86/3 87/65/3 86/82/3
f 88/61/2 77/60/2 2/87/2
f 2/87/2 6/121/2 79/74/2
f 2/87/2 79/74/2 81/69/2
f 85/67/2 88/61/2 2/87/2
f 80/63/2 85/67/2 2/87/2
f 2/87/2 81/69/2 84/64/2
