# Blender 5.0.1
# www.blender.org
mtllib roof.mtl
o Roof
v 0.000000 4.000000 0.000000
v 0.000000 4.000000 -2.000000
v 2.000000 4.000000 0.000000
v 2.000000 4.000000 -2.000000
v 0.000000 4.000000 0.000000
v 0.000000 5.000000 -1.006407
v 0.000000 5.000000 -0.993593
v 0.000000 4.000000 -2.000000
v 2.000000 5.000000 -1.006407
v 2.000000 4.000000 0.000000
v 2.000000 4.000000 -2.000000
v 2.000000 5.000000 -0.993593
vn -0.0000 -1.0000 -0.0000
vn -0.0000 0.7094 -0.7048
vn -0.0000 0.7094 0.7048
vn -0.0000 1.0000 -0.0000
vn 1.0000 -0.0000 -0.0000
vn -1.0000 -0.0000 -0.0000
vt 0.499583 0.499583
vt 0.000417 0.000417
vt 0.499583 0.000417
vt 0.500417 0.000417
vt 0.854513 0.499583
vt 0.500417 0.499583
vt 0.000417 0.500417
vt 0.354513 0.999583
vt 0.000417 0.999583
vt 0.856182 0.500417
vt 0.355348 0.748401
vt 0.355348 0.751599
vt 0.604930 0.500417
vt 0.855348 0.000417
vt 0.858546 0.499583
vt 0.855348 0.499583
vt 0.856182 0.501252
vt 0.605765 0.748401
vt 0.605765 0.751599
vt 0.855348 0.500417
vt 0.000417 0.499583
vt 0.854513 0.000417
vt 0.354513 0.500417
vt 0.604930 0.999583
vt 0.858546 0.000417
vt 0.855348 0.999583
s 0
usemtl Roof_Material.001
f 4/1/1 1/2/1 2/3/1
f 12/4/2 8/5/2 7/6/2
f 6/7/3 10/8/3 9/9/3
f 3/10/4 5/10/4 1/10/4
f 6/11/5 7/12/5 2/13/5
f 7/14/1 9/15/1 12/16/1
f 2/17/4 11/17/4 4/17/4
f 12/18/6 9/19/6 3/20/6
f 4/1/1 3/21/1 1/2/1
f 12/4/2 11/22/2 8/5/2
f 6/7/3 5/23/3 10/8/3
f 3/10/4 10/10/4 5/10/4
f 1/24/4 5/24/4 6/11/4
f 7/12/4 8/13/4 2/13/4
f 2/13/6 1/24/6 6/11/6
f 7/14/1 6/25/1 9/15/1
f 2/17/4 8/17/4 11/17/4
f 4/26/4 11/26/4 12/18/4
f 9/19/4 10/20/4 3/20/4
f 3/20/5 4/26/5 12/18/5
