# Blender 4.5.3 LTS
# www.blender.org
mtllib House_Small 1.mtl
o Cube
v -1.000000 -1.000000 1.000000
v -1.000000 1.000000 1.000000
v -1.000000 -1.000000 -1.000000
v 1.000000 -1.000000 1.000000
v 1.000000 1.000000 1.000000
v 1.000000 -1.000000 -1.000000
v 1.000000 1.000000 -1.000000
v -1.000000 1.000000 -3.000000
v -1.000000 -1.000000 -3.000000
v 1.000000 -1.000000 -3.000000
v 1.000000 1.000000 -3.000000
v -7.000000 -1.000000 -1.000000
v -7.000000 -1.000000 1.000000
v -7.000000 1.000000 1.000000
v -7.000000 1.000000 -1.000000
v -7.000000 1.000000 -3.000000
v -7.000000 -1.000000 -3.000000
v -1.000000 2.000000 1.000000
v -1.000000 3.000000 -1.000000
v -1.000000 2.000000 -3.000000
v -7.000000 2.000000 -3.000000
v 1.000000 3.000000 -1.000000
v 1.000000 2.000000 1.000000
v 1.000000 2.000000 -3.000000
v -7.000000 2.000000 1.000000
v -7.000000 3.000000 -1.000000
vn -1.0000 -0.0000 -0.0000
vn 1.0000 -0.0000 -0.0000
vn -0.0000 -0.0000 1.0000
vn -0.0000 -1.0000 -0.0000
vn -0.0000 -0.0000 -1.0000
vn -0.0000 0.8944 0.4472
vn -0.0000 0.8944 -0.4472
vt 0.625000 0.250000
vt 0.625000 0.500000
vt 0.375000 0.500000
vt 0.625000 0.750000
vt 0.375000 0.750000
vt 0.625000 1.000000
vt 0.375000 1.000000
vt 0.125000 0.500000
vt 0.125000 0.750000
vt 0.375000 0.250000
vt 0.375000 0.000000
vt 0.625000 0.000000
vt 0.875000 0.750000
vt 0.875000 0.500000
s 0
f 16/1/1 15/1/1 26/1/1 21/1/1
f 7/2/2 6/3/2 10/3/2 11/2/2
f 6/3/2 7/2/2 5/4/2 4/5/2
f 4/5/3 5/4/3 2/6/3 1/7/3
f 3/8/4 6/3/4 4/5/4 1/9/4
f 7/2/2 11/2/2 24/2/2 22/2/2
f 9/10/5 8/1/5 11/2/5 10/3/5
f 6/3/4 3/8/4 9/8/4 10/3/4
f 14/6/3 2/6/3 18/6/3 25/6/3
f 5/4/2 7/2/2 22/2/2 23/4/2
f 13/11/1 14/12/1 15/1/1 12/10/1
f 12/10/1 15/1/1 16/1/1 17/10/1
f 3/8/4 1/9/4 13/9/4 12/8/4
f 9/8/4 3/8/4 12/8/4 17/8/4
f 1/7/3 2/6/3 14/6/3 13/7/3
f 8/1/5 9/10/5 17/10/5 16/1/5
f 18/13/6 19/14/6 26/14/6 25/13/6
f 22/2/6 19/14/6 18/13/6 23/4/6
f 19/14/7 22/2/7 24/2/7 20/14/7
f 19/14/7 20/14/7 21/14/7 26/14/7
f 15/1/1 14/12/1 25/12/1 26/1/1
f 2/6/3 5/4/3 23/4/3 18/6/3
f 8/1/5 16/1/5 21/1/5 20/1/5
f 11/2/5 8/1/5 20/1/5 24/2/5
