# Blender 5.0.1
# www.blender.org
mtllib roof-t2__5-_25 Roof.mtl
o roof-t2__5-_25_Roof
v -0.304800 -0.304800 -0.304800
v -0.304800 -0.304800 0.000000
v -0.304800 0.000000 -0.304800
v -0.304800 0.000000 0.000000
v 0.304800 -0.304800 -0.304800
v 0.304800 0.000000 -0.304800
vn -1.0000 -0.0000 -0.0000
vn -0.0000 -0.0000 -1.0000
vn -0.0000 -1.0000 -0.0000
vn -0.0000 1.0000 -0.0000
vn 0.4472 -0.0000 0.8944
vt 0.375000 0.000000
vt 0.625000 0.000000
vt 0.625000 0.250000
vt 0.375000 0.250000
vt 0.125000 0.500000
vt 0.375000 0.500000
vt 0.375000 0.750000
vt 0.125000 0.750000
s 0
f 1/1/1 2/2/1 4/3/1 3/4/1
f 3/5/2 6/6/2 5/7/2 1/8/2
f 2/2/3 1/8/3 5/7/3
f 3/5/4 4/3/4 6/6/4
f 4/3/5 2/2/5 5/7/5 6/6/5
