# Blender 5.0.1
# www.blender.org
mtllib part3.mtl
o Default_Stair.004
v 0.000000 0.000000 1.143000
v 0.076200 0.000000 1.143000
v 0.000000 0.000000 1.447800
v 0.076200 0.000000 1.447800
v 0.152400 0.000000 1.143000
v 0.152400 0.000000 1.447800
v 0.228600 0.000000 1.143000
v 0.228600 0.000000 1.447800
v 0.304800 0.000000 1.143000
v 0.304800 0.000000 1.447800
v 0.000000 0.038100 1.143000
v 0.076200 0.038100 1.143000
v 0.000000 0.038100 1.447800
v 0.076200 0.038100 1.447800
v 0.152400 0.038100 1.447800
v 0.228600 0.038100 1.447800
v 0.304800 0.038100 1.143000
v 0.304800 0.038100 1.447800
v 0.076200 0.076200 1.143000
v 0.076200 0.076200 1.447800
v 0.152400 0.076200 1.143000
v 0.152400 0.076200 1.447800
v 0.228600 0.076200 1.447800
v 0.304800 0.076200 1.143000
v 0.304800 0.076200 1.447800
v 0.152400 0.114300 1.143000
v 0.152400 0.114300 1.447800
v 0.228600 0.114300 1.143000
v 0.228600 0.114300 1.447800
v 0.304800 0.114300 1.143000
v 0.304800 0.114300 1.447800
v 0.228600 0.152400 1.143000
v 0.228600 0.152400 1.447800
v 0.304800 0.152400 1.143000
v 0.304800 0.152400 1.447800
v 0.076200 0.000000 1.295400
v 0.000000 0.000000 1.295400
v 0.152400 0.000000 1.295400
v 0.228600 0.000000 1.295400
v 0.304800 0.000000 1.295400
v 0.304800 0.038100 1.295400
v 0.304800 0.076200 1.295400
v 0.304800 0.114300 1.295400
v 0.304800 0.152400 1.295400
v 0.076200 0.000000 1.409700
v 0.152400 0.000000 1.409700
v 0.228600 0.000000 1.409700
v 0.304800 0.000000 1.409700
v 0.152400 0.000000 1.409700
v 0.304800 0.038100 1.409700
v 0.076200 0.000000 1.409700
v 0.304800 0.076200 1.409700
v 0.152400 0.114300 1.409700
v 0.228600 0.114300 1.409700
v 0.304800 0.114300 1.409700
v 0.228600 0.152400 1.409700
v 0.304800 0.152400 1.409700
v 0.000000 0.000000 1.409700
v 0.000000 0.038100 1.409700
v 0.019050 0.038100 1.447800
v 0.019050 0.038100 1.409700
v 0.285750 0.152400 1.447800
v 0.285750 0.152400 1.409700
v 0.000000 0.152400 1.447800
v 0.000000 0.152400 1.409700
v 0.019050 0.152400 1.409700
v 0.019050 0.152400 1.447800
v 0.304800 0.266700 1.409700
v 0.304800 0.266700 1.447800
v 0.285750 0.266700 1.409700
v 0.285750 0.266700 1.447800
v 0.304800 0.304800 1.409700
v 0.304800 0.304800 1.447800
v 0.019050 0.152400 1.447800
v 0.000000 0.152400 1.447800
v 0.285750 0.266700 1.447800
v 0.304800 0.266700 1.447800
v 0.304800 0.304800 1.447800
v 0.076200 0.000000 1.409700
v 0.152400 0.000000 1.409700
v 0.228600 0.000000 1.409700
v 0.304800 0.000000 1.409700
v 0.304800 0.038100 1.409700
v 0.304800 0.076200 1.409700
v 0.152400 0.114300 1.409700
v 0.228600 0.114300 1.409700
v 0.304800 0.114300 1.409700
v 0.228600 0.152400 1.409700
v 0.304800 0.152400 1.409700
v 0.000000 0.000000 1.409700
v 0.000000 0.038100 1.409700
v 0.285750 0.152400 1.409700
v 0.228600 0.000000 1.409700
v 0.304800 0.000000 1.409700
v 0.304800 0.038100 1.409700
v 0.304800 0.076200 1.409700
v 0.152400 0.114300 1.409700
v 0.228600 0.114300 1.409700
v 0.304800 0.114300 1.409700
v 0.228600 0.152400 1.409700
v 0.304800 0.152400 1.409700
v 0.000000 0.000000 1.409700
v 0.000000 0.038100 1.409700
v 0.285750 0.152400 1.409700
v 0.152400 0.000000 1.409700
v 0.076200 0.000000 1.409700
v 0.228600 0.000000 1.409700
v 0.304800 0.000000 1.409700
v 0.304800 0.038100 1.409700
v 0.304800 0.076200 1.409700
v 0.152400 0.114300 1.409700
v 0.228600 0.114300 1.409700
v 0.304800 0.114300 1.409700
v 0.228600 0.152400 1.409700
v 0.304800 0.152400 1.409700
v 0.000000 0.000000 1.409700
v 0.000000 0.038100 1.409700
v 0.285750 0.152400 1.409700
v 0.152400 0.000000 1.409700
v 0.076200 0.000000 1.409700
v 0.228600 0.000000 1.409700
v 0.304800 0.000000 1.409700
v 0.304800 0.038100 1.409700
v 0.304800 0.076200 1.409700
v 0.152400 0.114300 1.409700
v 0.228600 0.114300 1.409700
v 0.304800 0.114300 1.409700
v 0.228600 0.152400 1.409700
v 0.304800 0.152400 1.409700
v 0.000000 0.000000 1.409700
v 0.000000 0.038100 1.409700
v 0.285750 0.152400 1.409700
v 0.152400 0.000000 1.409700
v 0.076200 0.000000 1.409700
v 0.228600 0.000000 1.409700
v 0.304800 0.000000 1.409700
v 0.304800 0.038100 1.409700
v 0.304800 0.076200 1.409700
v 0.152400 0.114300 1.409700
v 0.228600 0.114300 1.409700
v 0.304800 0.114300 1.409700
v 0.228600 0.152400 1.409700
v 0.304800 0.152400 1.409700
v 0.000000 0.000000 1.409700
v 0.000000 0.038100 1.409700
v 0.285750 0.152400 1.409700
v 0.152400 0.000000 1.409700
v 0.076200 0.000000 1.409700
v 0.228600 0.000000 1.409700
v 0.304800 0.000000 1.409700
v 0.304800 0.038100 1.409700
v 0.304800 0.076200 1.409700
v 0.152400 0.114300 1.409700
v 0.228600 0.114300 1.409700
v 0.304800 0.114300 1.409700
v 0.228600 0.152400 1.409700
v 0.304800 0.152400 1.409700
v 0.000000 0.000000 1.409700
v 0.000000 0.038100 1.409700
v 0.285750 0.152400 1.409700
v 0.152400 0.000000 1.409700
v 0.076200 0.000000 1.409700
v 0.228600 0.000000 1.409700
v 0.304800 0.000000 1.409700
v 0.304800 0.038100 1.409700
v 0.304800 0.076200 1.409700
v 0.152400 0.114300 1.409700
v 0.228600 0.114300 1.409700
v 0.304800 0.114300 1.409700
v 0.228600 0.152400 1.409700
v 0.304800 0.152400 1.409700
v 0.000000 0.000000 1.409700
v 0.000000 0.038100 1.409700
v 0.285750 0.152400 1.409700
vn -0.0000 1.0000 -0.0000
vn -1.0000 -0.0000 -0.0000
vn -0.0000 -1.0000 -0.0000
vn -0.0000 -0.0000 -1.0000
vn 1.0000 -0.0000 -0.0000
vn -0.0000 -0.0000 1.0000
vn -0.4472 0.8944 -0.0000
vn 0.3939 -0.9191 -0.0000
vt 0.457369 0.499502
vt 0.457369 0.541583
vt 0.436341 0.541583
vt 0.436341 0.499502
vt 0.944490 0.958559
vt 0.446900 0.442453
vt 0.446900 0.452974
vt 0.436379 0.452974
vt 0.436379 0.442453
vt 0.268015 0.724877
vt 0.252245 0.724877
vt 0.252245 0.714357
vt 0.246988 0.714357
vt 0.246988 0.640714
vt 0.268015 0.640714
vt 0.457420 0.442453
vt 0.457420 0.452974
vt 0.577591 0.301242
vt 0.577591 0.322282
vt 0.567070 0.322282
vt 0.567070 0.317022
vt 0.567070 0.301242
vt 0.732077 0.630193
vt 0.732077 0.703836
vt 0.711050 0.703836
vt 0.711050 0.630193
vt 0.567070 0.280201
vt 0.556550 0.301242
vt 0.556550 0.280201
vt 0.577591 0.259160
vt 0.577591 0.280201
vt 0.567070 0.259160
vt 0.759251 0.238119
vt 0.780278 0.238119
vt 0.780278 0.280201
vt 0.780278 0.311762
vt 0.775021 0.311762
vt 0.759251 0.311762
vt 0.305688 0.033784
vt 0.305688 0.065346
vt 0.305688 0.107427
vt 0.295167 0.107427
vt 0.295167 0.033784
vt 0.425859 0.452974
vt 0.425859 0.442453
vt 0.295167 0.191591
vt 0.284647 0.191591
vt 0.274126 0.191591
vt 0.263606 0.191591
vt 0.263606 0.170550
vt 0.274126 0.170550
vt 0.305688 0.170550
vt 0.305688 0.191591
vt 0.556550 0.259160
vt 0.748687 0.107427
vt 0.727660 0.107427
vt 0.727660 0.023264
vt 0.748687 0.023264
vt 0.567070 0.238119
vt 0.556550 0.238119
vt 0.732077 0.714357
vt 0.711050 0.714357
vt 0.546030 0.238119
vt 0.546030 0.259160
vt 0.535509 0.259160
vt 0.535509 0.243379
vt 0.535509 0.238119
vt 0.546030 0.280201
vt 0.415338 0.452974
vt 0.415338 0.442453
vt 0.305688 0.128468
vt 0.295167 0.128468
vt 0.436341 0.583665
vt 0.415313 0.583665
vt 0.415313 0.573145
vt 0.436341 0.573145
vt 0.394285 0.583665
vt 0.394285 0.573145
vt 0.775021 0.322282
vt 0.759251 0.322282
vt 0.577591 0.238119
vt 0.373256 0.583665
vt 0.373256 0.573145
vt 0.457369 0.573145
vt 0.436379 0.368810
vt 0.436379 0.410892
vt 0.425859 0.410892
vt 0.425859 0.368810
vt 0.457420 0.368810
vt 0.457420 0.410892
vt 0.446900 0.410892
vt 0.446900 0.368810
vt 0.373256 0.541583
vt 0.394285 0.541583
vt 0.415338 0.410892
vt 0.415338 0.368810
vt 0.373256 0.499502
vt 0.394285 0.499502
vt 0.415313 0.541583
vt 0.415313 0.499502
vt 0.305688 0.149509
vt 0.274126 0.149509
vt 0.284647 0.149509
vt 0.893264 0.238119
vt 0.893264 0.322282
vt 0.882743 0.322282
vt 0.882743 0.238119
vt 0.548551 0.924545
vt 0.543291 0.924545
vt 0.543291 0.892984
vt 0.548551 0.892984
vt 0.305688 0.023264
vt 0.295167 0.023264
vt 0.457369 0.583665
vt 0.284647 0.128468
vt 0.959989 0.153955
vt 0.535509 0.322282
vt 0.535509 0.317022
vt 0.657387 0.846131
vt 0.657387 0.840874
vt 0.667908 0.840874
vt 0.667908 0.846131
vt 0.263606 0.033784
vt 0.263606 0.023264
vt 0.434454 0.926965
vt 0.429194 0.926965
vt 0.429194 0.895404
vt 0.434454 0.895404
vt 0.451346 0.185517
vt 0.440825 0.185517
vt 0.440825 0.153955
vt 0.451346 0.153955
vt 0.667908 0.766141
vt 0.657387 0.766141
vt 0.657387 0.760885
vt 0.667908 0.760885
vt 0.508394 0.185517
vt 0.497874 0.185517
vt 0.497874 0.153955
vt 0.508394 0.153955
vt 0.503948 0.243379
vt 0.503948 0.238119
vt 0.383777 0.452974
vt 0.383777 0.442453
vt 0.373256 0.452974
vt 0.373256 0.442453
vt 0.783115 0.174996
vt 0.793636 0.174996
vt 0.793636 0.185517
vt 0.783115 0.185517
vt 0.776340 0.578960
vt 0.771635 0.498977
vt 0.769282 0.494272
vt 0.778692 0.489568
vt 0.778692 0.583665
vt 0.553811 0.760885
vt 0.553811 0.846456
vt 0.543291 0.846456
vt 0.543291 0.760885
vt 0.785662 0.639603
vt 0.780957 0.719586
vt 0.778605 0.724291
vt 0.778605 0.630193
vt 0.788015 0.634898
vt 0.111874 0.960068
vt 0.236479 0.855569
vt 0.236479 0.781925
vt 0.236479 0.771405
vt 0.247000 0.771405
vt 0.247000 0.781925
vt 0.247000 0.855569
vt 0.901001 0.630193
vt 0.901001 0.714357
vt 0.890480 0.714357
vt 0.890480 0.640714
vt 0.890480 0.630193
s 0
usemtl Stairs
f 1/1/1 37/2/1 36/3/1 2/4/1
f 91/5/1 90/5/1 102/5/1 103/5/1
f 50/6/2 18/7/2 25/8/2 52/9/2
f 14/10/3 60/11/3 61/12/3 59/13/3 11/14/3 12/15/3
f 48/16/2 10/17/2 18/7/2 50/6/2
f 90/5/1 79/5/1 51/5/1 102/5/1
f 4/18/4 3/19/4 13/20/4 60/21/4 14/22/4
f 28/23/3 54/24/3 53/25/3 26/26/3
f 15/27/4 14/22/4 20/28/4 22/29/4
f 8/30/4 6/31/4 15/27/4 16/32/4
f 6/31/4 4/18/4 14/22/4 15/27/4
f 32/33/3 34/34/3 44/35/3 57/36/3 63/37/3 56/38/3
f 58/39/5 37/40/5 1/41/5 11/42/5 59/43/5
f 52/9/2 25/8/2 31/44/2 55/45/2
f 87/5/1 84/5/1 96/5/1 99/5/1
f 17/46/6 24/47/6 30/48/6 34/49/6 32/50/6 28/51/6 7/52/6 9/53/6
f 16/32/4 15/27/4 22/29/4 23/54/4
f 22/55/3 20/56/3 19/57/3 21/58/3
f 18/59/4 16/32/4 23/54/4 25/60/4
f 53/25/3 54/24/3 29/61/3 27/62/3
f 31/63/4 29/64/4 33/65/4 62/66/4 35/67/4
f 23/54/4 22/29/4 27/68/4 29/64/4
f 55/45/2 31/44/2 35/69/2 57/70/2
f 1/41/6 2/71/6 12/72/6 11/42/6
f 4/73/1 6/74/1 46/75/1 45/76/1
f 6/74/1 8/77/1 47/78/1 46/75/1
f 56/38/3 63/37/3 62/79/3 33/80/3
f 10/81/4 8/30/4 16/32/4 18/59/4
f 8/77/1 10/82/1 48/83/1 47/78/1
f 58/84/1 45/76/1 36/3/1 37/2/1
f 24/85/2 42/86/2 43/87/2 30/88/2
f 9/89/2 40/90/2 41/91/2 17/92/2
f 17/92/2 41/91/2 42/86/2 24/85/2
f 47/78/1 48/83/1 40/93/1 39/94/1
f 30/88/2 43/87/2 44/95/2 34/96/2
f 39/94/1 40/93/1 9/97/1 7/98/1
f 25/60/4 23/54/4 29/64/4 31/63/4
f 38/99/1 39/94/1 7/98/1 5/100/1
f 5/101/6 7/52/6 28/51/6 26/102/6 21/103/6
f 36/3/1 38/99/1 5/100/1 2/4/1
f 14/104/5 12/105/5 19/106/5 20/107/5
f 63/108/6 57/109/6 68/110/6 70/111/6
f 81/5/1 80/5/1 49/5/1 93/5/1
f 3/112/5 58/39/5 59/43/5 13/113/5
f 58/84/1 3/114/1 4/73/1 45/76/1
f 42/86/2 52/9/2 55/45/2 43/87/2
f 40/90/2 48/16/2 50/6/2 41/91/2
f 41/91/2 50/6/2 52/9/2 42/86/2
f 2/71/6 5/101/6 21/103/6 19/115/6 12/72/6
f 36/3/1 45/76/1 46/75/1 38/99/1
f 92/116/1 88/116/1 100/116/1 104/116/1
f 38/99/1 46/75/1 47/78/1 39/94/1
f 60/21/4 13/20/4 64/117/4 67/118/4
f 43/87/2 55/45/2 57/70/2 44/95/2
f 65/119/3 66/120/3 67/121/3 64/122/3
f 13/113/5 59/43/5 65/123/5 64/124/5
f 59/125/6 61/126/6 66/127/6 65/128/6
f 61/129/2 60/130/2 67/131/2 66/132/2
f 71/133/3 70/134/3 68/135/3 69/136/3
f 62/137/5 63/138/5 70/139/5 71/140/5
f 35/67/4 62/66/4 71/141/4 69/142/4
f 57/70/2 35/69/2 69/143/2 68/144/2
f 68/144/2 69/143/2 73/145/2 72/146/2
f 68/147/5 72/148/5 78/149/5 77/150/5
f 74/151/6 76/152/6 77/153/6 78/154/6 75/155/6
f 72/156/7 65/157/7 75/158/7 78/159/7
f 70/134/3 68/135/3 77/136/3 76/133/3
f 65/119/3 66/120/3 74/121/3 75/122/3
f 66/120/8 70/134/8 76/133/8 74/121/8
f 70/160/4 66/161/4 65/162/4 72/163/4 68/164/4
f 48/5/1 47/5/1 81/5/1 82/5/1
f 46/5/1 45/5/1 79/5/1 80/5/1
f 50/5/1 48/5/1 82/5/1 83/5/1
f 59/5/1 58/5/1 90/5/1 91/5/1
f 58/5/1 45/5/1 79/5/1 90/5/1
f 52/5/1 50/5/1 83/5/1 84/5/1
f 54/165/1 53/165/1 85/165/1 86/165/1
f 57/5/1 55/5/1 87/5/1 89/5/1
f 63/116/1 56/116/1 88/116/1 92/116/1
f 47/5/1 46/5/1 80/5/1 81/5/1
f 55/5/1 52/5/1 84/5/1 87/5/1
f 32/166/5 56/167/5 33/168/5 29/169/5 54/170/5 28/171/5
f 83/5/1 82/5/1 94/5/1 95/5/1
f 80/5/1 79/5/1 51/5/1 49/5/1
f 82/5/1 81/5/1 93/5/1 94/5/1
f 86/165/1 85/165/1 97/165/1 98/165/1
f 84/5/1 83/5/1 95/5/1 96/5/1
f 89/5/1 87/5/1 99/5/1 101/5/1
f 104/116/1 100/116/1 114/116/1 118/116/1
f 95/5/1 94/5/1 108/5/1 109/5/1
f 103/5/1 102/5/1 116/5/1 117/5/1
f 49/5/1 51/5/1 106/5/1 105/5/1
f 94/5/1 93/5/1 107/5/1 108/5/1
f 96/5/1 95/5/1 109/5/1 110/5/1
f 98/165/1 97/165/1 111/165/1 112/165/1
f 102/5/1 51/5/1 106/5/1 116/5/1
f 99/5/1 96/5/1 110/5/1 113/5/1
f 93/5/1 49/5/1 105/5/1 107/5/1
f 101/5/1 99/5/1 113/5/1 115/5/1
f 112/165/1 111/165/1 125/165/1 126/165/1
f 116/5/1 106/5/1 120/5/1 130/5/1
f 107/5/1 105/5/1 119/5/1 121/5/1
f 113/5/1 110/5/1 124/5/1 127/5/1
f 118/116/1 114/116/1 128/116/1 132/116/1
f 109/5/1 108/5/1 122/5/1 123/5/1
f 115/5/1 113/5/1 127/5/1 129/5/1
f 108/5/1 107/5/1 121/5/1 122/5/1
f 117/5/1 116/5/1 130/5/1 131/5/1
f 110/5/1 109/5/1 123/5/1 124/5/1
f 105/5/1 106/5/1 120/5/1 119/5/1
f 122/5/1 121/5/1 135/5/1 136/5/1
f 131/5/1 130/5/1 144/5/1 145/5/1
f 124/5/1 123/5/1 137/5/1 138/5/1
f 119/5/1 120/5/1 134/5/1 133/5/1
f 126/165/1 125/165/1 139/165/1 140/165/1
f 130/5/1 120/5/1 134/5/1 144/5/1
f 121/5/1 119/5/1 133/5/1 135/5/1
f 127/5/1 124/5/1 138/5/1 141/5/1
f 132/116/1 128/116/1 142/116/1 146/116/1
f 123/5/1 122/5/1 136/5/1 137/5/1
f 129/5/1 127/5/1 141/5/1 143/5/1
f 141/5/1 138/5/1 152/5/1 155/5/1
f 146/116/1 142/116/1 156/116/1 160/116/1
f 137/5/1 136/5/1 150/5/1 151/5/1
f 143/5/1 141/5/1 155/5/1 157/5/1
f 136/5/1 135/5/1 149/5/1 150/5/1
f 145/5/1 144/5/1 158/5/1 159/5/1
f 138/5/1 137/5/1 151/5/1 152/5/1
f 133/5/1 134/5/1 148/5/1 147/5/1
f 140/165/1 139/165/1 153/165/1 154/165/1
f 144/5/1 134/5/1 148/5/1 158/5/1
f 135/5/1 133/5/1 147/5/1 149/5/1
f 154/165/1 153/165/1 167/165/1 168/165/1
f 158/5/1 148/5/1 162/5/1 172/5/1
f 149/5/1 147/5/1 161/5/1 163/5/1
f 155/5/1 152/5/1 166/5/1 169/5/1
f 160/116/1 156/116/1 170/116/1 174/116/1
f 151/5/1 150/5/1 164/5/1 165/5/1
f 157/5/1 155/5/1 169/5/1 171/5/1
f 150/5/1 149/5/1 163/5/1 164/5/1
f 159/5/1 158/5/1 172/5/1 173/5/1
f 152/5/1 151/5/1 165/5/1 166/5/1
f 147/5/1 148/5/1 162/5/1 161/5/1
f 22/172/5 21/173/5 26/174/5 53/175/5 27/176/5
