# Blender 5.0.1
# www.blender.org
mtllib part2.mtl
o Default_Stair.003
v 0.000000 0.000000 0.000000
v 0.076200 0.000000 0.000000
v 0.000000 0.000000 0.304800
v 0.076200 0.000000 0.304800
v 0.152400 0.000000 0.000000
v 0.152400 0.000000 0.304800
v 0.228600 0.000000 0.000000
v 0.228600 0.000000 0.304800
v 0.304800 0.000000 0.000000
v 0.304800 0.000000 0.304800
v 0.000000 0.038100 0.000000
v 0.076200 0.038100 0.000000
v 0.000000 0.038100 0.304800
v 0.076200 0.038100 0.304800
v 0.152400 0.038100 0.000000
v 0.152400 0.038100 0.304800
v 0.228600 0.038100 0.000000
v 0.228600 0.038100 0.304800
v 0.304800 0.038100 0.000000
v 0.304800 0.038100 0.304800
v 0.076200 0.076200 0.000000
v 0.076200 0.076200 0.304800
v 0.152400 0.076200 0.000000
v 0.152400 0.076200 0.304800
v 0.228600 0.076200 0.000000
v 0.228600 0.076200 0.304800
v 0.304800 0.076200 0.000000
v 0.304800 0.076200 0.304800
v 0.152400 0.114300 0.000000
v 0.152400 0.114300 0.304800
v 0.228600 0.114300 0.000000
v 0.228600 0.114300 0.304800
v 0.304800 0.114300 0.000000
v 0.304800 0.114300 0.304800
v 0.228600 0.152400 0.000000
v 0.228600 0.152400 0.304800
v 0.304800 0.152400 0.000000
v 0.304800 0.152400 0.304800
v 0.076200 0.000000 0.152400
v 0.000000 0.000000 0.152400
v 0.152400 0.000000 0.152400
v 0.228600 0.000000 0.152400
v 0.304800 0.000000 0.152400
v 0.304800 0.038100 0.152400
v 0.304800 0.076200 0.152400
v 0.304800 0.114300 0.152400
v 0.304800 0.152400 0.152400
v 0.076200 0.000000 0.133350
v 0.152400 0.000000 0.133350
v 0.228600 0.000000 0.133350
v 0.304800 0.000000 0.133350
v 0.076200 0.038100 0.133350
v 0.304800 0.038100 0.133350
v 0.076200 0.076200 0.133350
v 0.152400 0.076200 0.133350
v 0.304800 0.076200 0.133350
v 0.152400 0.114300 0.133350
v 0.228600 0.114300 0.133350
v 0.304800 0.114300 0.133350
v 0.228600 0.152400 0.133350
v 0.304800 0.152400 0.133350
v 0.000000 0.000000 0.133350
v 0.000000 0.038100 0.133350
v 0.000000 0.000000 0.171450
v 0.000000 0.038100 0.171450
v 0.076200 0.000000 0.171450
v 0.152400 0.000000 0.171450
v 0.228600 0.000000 0.171450
v 0.304800 0.000000 0.171450
v 0.076200 0.038100 0.171450
v 0.304800 0.038100 0.171450
v 0.076200 0.076200 0.171450
v 0.152400 0.076200 0.171450
v 0.304800 0.076200 0.171450
v 0.152400 0.114300 0.171450
v 0.228600 0.114300 0.171450
v 0.304800 0.114300 0.171450
v 0.228600 0.152400 0.171450
v 0.304800 0.152400 0.171450
v 0.019050 0.038100 0.133350
v 0.019050 0.038100 0.171450
v 0.285750 0.152400 0.133350
v 0.285750 0.152400 0.171450
v 0.000000 0.152400 0.171450
v 0.000000 0.152400 0.133350
v 0.019050 0.152400 0.133350
v 0.019050 0.152400 0.171450
v 0.000000 0.152400 0.171450
v 0.000000 0.152400 0.133350
v 0.019050 0.152400 0.133350
v 0.019050 0.152400 0.171450
v 0.304800 0.266700 0.133350
v 0.304800 0.266700 0.152400
v 0.285750 0.266700 0.133350
v 0.304800 0.266700 0.171450
v 0.285750 0.266700 0.171450
v 0.304800 0.304800 0.133350
v 0.304800 0.304800 0.152400
v 0.304800 0.304800 0.171450
v 0.019050 0.152400 0.171450
v 0.000000 0.152400 0.171450
v 0.285750 0.266700 0.171450
v 0.304800 0.266700 0.171450
v 0.304800 0.304800 0.171450
vn -0.0000 1.0000 -0.0000
vn -1.0000 -0.0000 -0.0000
vn -0.0000 -1.0000 -0.0000
vn -0.0000 -0.0000 -1.0000
vn -0.0000 -0.0000 1.0000
vn 1.0000 -0.0000 -0.0000
vn -0.4472 0.8944 -0.0000
vn 0.3939 -0.9191 -0.0000
vt 0.503926 0.065346
vt 0.524959 0.060085
vt 0.524959 0.065346
vt 0.482892 0.065346
vt 0.503926 0.070606
vt 0.482892 0.070606
vt 0.185517 0.463494
vt 0.174996 0.426673
vt 0.185517 0.426673
vt 0.023264 0.631007
vt 0.039040 0.631007
vt 0.044299 0.667829
vt 0.461859 0.065346
vt 0.461859 0.070606
vt 0.232045 0.573145
vt 0.221524 0.552104
vt 0.232045 0.552104
vt 0.054825 0.406446
vt 0.044305 0.385405
vt 0.054825 0.385405
vt 0.242565 0.552104
vt 0.232045 0.531063
vt 0.242565 0.531063
vt 0.242565 0.573145
vt 0.196037 0.463494
vt 0.196037 0.426673
vt 0.065346 0.406446
vt 0.065346 0.385405
vt 0.054825 0.364364
vt 0.065346 0.364364
vt 0.065346 0.274940
vt 0.054825 0.238119
vt 0.065346 0.238119
vt 0.221524 0.531063
vt 0.033784 0.891804
vt 0.023264 0.854982
vt 0.033784 0.854982
vt 0.211004 0.531063
vt 0.174996 0.463494
vt 0.164476 0.426673
vt 0.153955 0.426673
vt 0.122394 0.421412
vt 0.153955 0.421412
vt 0.164476 0.421413
vt 0.153955 0.416152
vt 0.164476 0.416152
vt 0.938206 0.536910
vt 0.948726 0.526389
vt 0.948726 0.536910
vt 0.023264 0.902324
vt 0.033784 0.902324
vt 0.033784 0.364364
vt 0.044305 0.364364
vt 0.065346 0.280201
vt 0.054825 0.285461
vt 0.174996 0.421413
vt 0.174996 0.416152
vt 0.044305 0.343323
vt 0.054825 0.343323
vt 0.196037 0.421413
vt 0.185517 0.416152
vt 0.196037 0.416152
vt 0.185517 0.421413
vt 0.242565 0.510022
vt 0.660097 0.023264
vt 0.681132 0.060085
vt 0.660097 0.060085
vt 0.461859 0.023264
vt 0.440825 0.060085
vt 0.440825 0.023264
vt 0.440825 0.065346
vt 0.524959 0.107427
vt 0.524959 0.070606
vt 0.503926 0.107427
vt 0.482892 0.107427
vt 0.461859 0.060085
vt 0.482892 0.023264
vt 0.482892 0.060085
vt 0.503926 0.023264
vt 0.503926 0.060085
vt 0.044305 0.406446
vt 0.033784 0.385405
vt 0.065346 0.343323
vt 0.938206 0.489568
vt 0.948726 0.489568
vt 0.950312 0.274940
vt 0.939792 0.238119
vt 0.950312 0.238119
vt 0.660097 0.070606
vt 0.681132 0.107427
vt 0.660097 0.107427
vt 0.691688 0.285461
vt 0.712723 0.322282
vt 0.691688 0.322282
vt 0.461859 0.107427
vt 0.440825 0.070606
vt 0.440825 0.107427
vt 0.712723 0.405632
vt 0.696946 0.416152
vt 0.696946 0.405632
vt 0.033784 0.939146
vt 0.948726 0.573731
vt 0.950312 0.322282
vt 0.939792 0.285461
vt 0.950312 0.285461
vt 0.174996 0.379331
vt 0.185517 0.379331
vt 0.691688 0.238119
vt 0.712723 0.274940
vt 0.691688 0.274940
vt 0.065346 0.322282
vt 0.065346 0.285461
vt 0.196037 0.379331
vt 0.164476 0.379331
vt 0.153955 0.379331
vt 0.712723 0.452974
vt 0.691688 0.416152
vt 0.712723 0.285461
vt 0.039040 0.620487
vt 0.023264 0.620487
vt 0.023264 0.274940
vt 0.054825 0.274940
vt 0.524959 0.023264
vt 0.691688 0.368810
vt 0.712723 0.368810
vt 0.164476 0.463494
vt 0.242565 0.594186
vt 0.044299 0.583665
vt 0.232045 0.510022
vt 0.200483 0.531063
vt 0.211004 0.510022
vt 0.221524 0.510022
vt 0.033784 0.406446
vt 0.023264 0.385405
vt 0.314543 0.969079
vt 0.480982 0.926965
vt 0.486242 0.895404
vt 0.486242 0.926965
vt 0.908201 0.185517
vt 0.913461 0.153955
vt 0.913461 0.185517
vt 0.851153 0.185517
vt 0.861673 0.153955
vt 0.861673 0.185517
vt 0.179431 0.851022
vt 0.189951 0.856280
vt 0.179431 0.856280
vt 0.179431 0.771405
vt 0.184691 0.771405
vt 0.189951 0.776664
vt 0.373256 0.933071
vt 0.378517 0.901510
vt 0.378517 0.933071
vt 0.662648 0.924220
vt 0.667908 0.892659
vt 0.667908 0.924220
vt 0.882268 0.443040
vt 0.892789 0.411478
vt 0.892789 0.443040
vt 0.122394 0.416152
vt 0.122394 0.426673
vt 0.111874 0.421412
vt 0.111874 0.416152
vt 0.610860 0.846132
vt 0.600339 0.760885
vt 0.610860 0.760885
vt 0.316896 0.650123
vt 0.323953 0.640714
vt 0.323953 0.734811
vt 0.111874 0.903019
vt 0.122394 0.913540
vt 0.111874 0.913540
vt 0.179431 0.776664
vt 0.189951 0.851022
vt 0.802272 0.032674
vt 0.795215 0.117362
vt 0.795215 0.023264
vt 0.023264 0.667829
vt 0.044299 0.631007
vt 0.221524 0.573145
vt 0.023264 0.891804
vt 0.211004 0.552104
vt 0.938206 0.526389
vt 0.681132 0.023264
vt 0.939792 0.274940
vt 0.681132 0.070606
vt 0.712723 0.416152
vt 0.023264 0.939146
vt 0.938206 0.573731
vt 0.939792 0.322282
vt 0.712723 0.238119
vt 0.054825 0.322282
vt 0.691688 0.452974
vt 0.023264 0.285461
vt 0.691688 0.405632
vt 0.153955 0.463494
vt 0.232045 0.594186
vt 0.023264 0.583665
vt 0.044299 0.620487
vt 0.200483 0.510022
vt 0.023264 0.406446
vt 0.480982 0.895404
vt 0.908201 0.153955
vt 0.851153 0.153955
vt 0.189951 0.771405
vt 0.373256 0.901510
vt 0.662648 0.892659
vt 0.882268 0.411478
vt 0.111874 0.426673
vt 0.600339 0.846132
vt 0.321601 0.730106
vt 0.314543 0.645418
vt 0.122394 0.903019
vt 0.797567 0.112657
vt 0.804625 0.027969
s 0
usemtl Stairs
f 39/1/1 62/2/1 40/3/1
f 41/4/1 66/5/1 67/6/1
f 20/7/2 74/8/2 71/9/2
f 78/10/3 83/11/3 38/12/3
f 42/13/1 67/6/1 68/14/1
f 14/15/4 24/16/4 16/17/4
f 19/18/5 25/19/5 17/20/5
f 6/21/4 18/22/4 8/23/4
f 4/24/4 16/17/4 6/21/4
f 10/25/2 71/9/2 69/26/2
f 9/27/5 17/20/5 7/28/5
f 7/28/5 15/29/5 5/30/5
f 64/31/6 13/32/6 3/33/6
f 16/17/4 26/34/4 18/22/4
f 70/35/6 22/36/6 14/37/6
f 24/16/4 32/38/4 26/34/4
f 28/39/2 77/40/2 74/8/2
f 79/41/2 93/42/2 47/43/2
f 46/44/2 61/45/2 59/46/2
f 57/47/6 73/48/6 55/49/6
f 54/50/6 70/35/6 52/51/6
f 25/19/5 29/52/5 23/53/5
f 40/54/6 63/55/6 64/31/6
f 45/56/2 59/46/2 56/57/2
f 15/29/5 21/58/5 12/59/5
f 43/60/2 53/61/2 51/62/2
f 44/63/2 56/57/2 53/61/2
f 18/22/4 10/64/4 8/23/4
f 29/65/3 58/66/3 57/67/3
f 7/68/1 51/69/1 9/70/1
f 68/14/1 43/71/1 42/13/1
f 3/72/1 66/5/1 64/73/1
f 67/6/1 4/74/1 6/75/1
f 50/76/1 5/77/1 49/78/1
f 49/78/1 2/79/1 48/80/1
f 27/81/5 31/82/5 25/19/5
f 17/20/5 23/53/5 15/29/5
f 5/30/5 12/59/5 2/83/5
f 73/48/6 30/84/6 24/85/6
f 76/86/6 36/87/6 32/88/6
f 75/89/3 32/90/3 30/91/3
f 72/92/3 24/93/3 22/94/3
f 68/14/1 6/75/1 8/95/1
f 69/96/1 8/95/1 10/97/1
f 52/98/3 81/99/3 80/100/3
f 66/5/1 40/3/1 64/73/1
f 12/101/6 54/50/6 52/51/6
f 41/4/1 48/80/1 39/1/1
f 23/102/6 57/47/6 55/49/6
f 42/13/1 49/78/1 41/4/1
f 31/103/6 60/104/6 58/105/6
f 53/61/2 27/106/2 19/107/2
f 21/108/3 55/109/3 54/110/3
f 1/111/6 63/55/6 62/112/6
f 51/62/2 19/107/2 9/113/2
f 56/57/2 33/114/2 27/106/2
f 59/46/2 37/115/2 33/114/2
f 81/99/3 14/116/3 65/117/3
f 77/40/2 47/43/2 46/44/2
f 74/8/2 46/44/2 45/56/2
f 69/26/2 44/63/2 43/60/2
f 71/9/2 45/56/2 44/63/2
f 54/110/3 73/118/3 72/92/3
f 58/66/3 75/89/3 57/67/3
f 43/71/1 50/76/1 42/13/1
f 82/119/3 78/10/3 60/120/3
f 60/104/6 76/86/6 58/105/6
f 63/55/6 84/121/6 65/122/6
f 62/2/1 2/79/1 1/123/1
f 80/100/3 11/124/3 12/125/3
f 12/59/5 1/111/5 2/83/5
f 34/126/2 79/41/2 77/40/2
f 3/127/4 14/15/4 4/24/4
f 37/128/3 82/119/3 60/120/3
f 26/34/4 20/129/4 18/22/4
f 36/130/4 34/131/4 32/38/4
f 32/38/4 28/132/4 26/34/4
f 33/133/5 35/134/5 31/82/5
f 86/135/1 91/135/1 90/135/1
f 80/136/5 85/137/5 63/138/5
f 65/139/4 87/140/4 81/141/4
f 81/142/2 86/143/2 80/144/2
f 90/145/3 88/146/3 89/147/3
f 85/135/1 90/135/1 89/135/1
f 87/135/1 88/135/1 91/135/1
f 84/135/1 89/135/1 88/135/1
f 92/148/3 93/149/3 96/150/3
f 83/151/4 95/152/4 79/153/4
f 61/154/5 94/155/5 82/156/5
f 82/157/6 96/158/6 83/159/6
f 47/43/2 92/160/2 61/45/2
f 95/161/2 98/162/2 93/42/2
f 93/42/2 97/163/2 92/160/2
f 89/164/7 104/165/7 97/166/7
f 102/167/5 104/168/5 101/169/5
f 92/170/6 104/171/6 103/172/6
f 92/148/3 102/150/3 94/173/3
f 90/145/3 101/146/3 89/147/3
f 90/145/8 102/150/8 100/174/8
f 94/175/4 89/176/4 97/177/4
f 39/1/1 48/80/1 62/2/1
f 41/4/1 39/1/1 66/5/1
f 20/7/2 28/39/2 74/8/2
f 38/12/3 36/178/3 78/10/3
f 83/11/3 79/179/3 38/12/3
f 42/13/1 41/4/1 67/6/1
f 14/15/4 22/180/4 24/16/4
f 19/18/5 27/81/5 25/19/5
f 6/21/4 16/17/4 18/22/4
f 4/24/4 14/15/4 16/17/4
f 10/25/2 20/7/2 71/9/2
f 9/27/5 19/18/5 17/20/5
f 7/28/5 17/20/5 15/29/5
f 64/31/6 65/122/6 13/32/6
f 16/17/4 24/16/4 26/34/4
f 70/35/6 72/181/6 22/36/6
f 24/16/4 30/182/4 32/38/4
f 28/39/2 34/126/2 77/40/2
f 79/41/2 95/161/2 93/42/2
f 46/44/2 47/43/2 61/45/2
f 57/47/6 75/183/6 73/48/6
f 54/50/6 72/181/6 70/35/6
f 25/19/5 31/82/5 29/52/5
f 40/54/6 62/112/6 63/55/6
f 63/55/6 65/122/6 64/31/6
f 45/56/2 46/44/2 59/46/2
f 15/29/5 23/53/5 21/58/5
f 43/60/2 44/63/2 53/61/2
f 44/63/2 45/56/2 56/57/2
f 18/22/4 20/129/4 10/64/4
f 29/65/3 31/184/3 58/66/3
f 7/68/1 50/76/1 51/69/1
f 68/14/1 69/96/1 43/71/1
f 3/72/1 4/74/1 66/5/1
f 67/6/1 66/5/1 4/74/1
f 50/76/1 7/68/1 5/77/1
f 49/78/1 5/77/1 2/79/1
f 27/81/5 33/133/5 31/82/5
f 17/20/5 25/19/5 23/53/5
f 5/30/5 15/29/5 12/59/5
f 73/48/6 75/183/6 30/84/6
f 76/86/6 78/185/6 36/87/6
f 75/89/3 76/186/3 32/90/3
f 72/92/3 73/118/3 24/93/3
f 68/14/1 67/6/1 6/75/1
f 69/96/1 68/14/1 8/95/1
f 52/98/3 70/187/3 81/99/3
f 66/5/1 39/1/1 40/3/1
f 12/101/6 21/188/6 54/50/6
f 41/4/1 49/78/1 48/80/1
f 23/102/6 29/189/6 57/47/6
f 42/13/1 50/76/1 49/78/1
f 31/103/6 35/190/6 60/104/6
f 53/61/2 56/57/2 27/106/2
f 21/108/3 23/191/3 55/109/3
f 1/111/6 11/192/6 63/55/6
f 51/62/2 53/61/2 19/107/2
f 56/57/2 59/46/2 33/114/2
f 59/46/2 61/45/2 37/115/2
f 81/99/3 70/187/3 14/116/3
f 14/116/3 13/193/3 65/117/3
f 77/40/2 79/41/2 47/43/2
f 74/8/2 77/40/2 46/44/2
f 69/26/2 71/9/2 44/63/2
f 71/9/2 74/8/2 45/56/2
f 54/110/3 55/109/3 73/118/3
f 58/66/3 76/186/3 75/89/3
f 43/71/1 51/69/1 50/76/1
f 82/119/3 83/11/3 78/10/3
f 60/104/6 78/185/6 76/86/6
f 63/55/6 85/194/6 84/121/6
f 62/2/1 48/80/1 2/79/1
f 12/125/3 52/98/3 80/100/3
f 80/100/3 63/195/3 11/124/3
f 12/59/5 11/192/5 1/111/5
f 34/126/2 38/196/2 79/41/2
f 3/127/4 13/197/4 14/15/4
f 60/120/3 35/198/3 37/128/3
f 37/128/3 61/199/3 82/119/3
f 26/34/4 28/132/4 20/129/4
f 36/130/4 38/200/4 34/131/4
f 32/38/4 34/131/4 28/132/4
f 33/133/5 37/201/5 35/134/5
f 86/135/1 87/135/1 91/135/1
f 80/136/5 86/202/5 85/137/5
f 65/139/4 84/203/4 87/140/4
f 81/142/2 87/204/2 86/143/2
f 90/145/3 91/174/3 88/146/3
f 85/135/1 86/135/1 90/135/1
f 87/135/1 84/135/1 88/135/1
f 84/135/1 85/135/1 89/135/1
f 96/150/3 94/173/3 92/148/3
f 93/149/3 95/205/3 96/150/3
f 83/151/4 96/206/4 95/152/4
f 61/154/5 92/207/5 94/155/5
f 82/157/6 94/208/6 96/158/6
f 47/43/2 93/42/2 92/160/2
f 95/161/2 99/209/2 98/162/2
f 93/42/2 98/162/2 97/163/2
f 89/164/7 101/210/7 104/165/7
f 101/169/5 100/211/5 102/167/5
f 102/167/5 103/212/5 104/168/5
f 92/170/6 97/213/6 104/171/6
f 92/148/3 103/205/3 102/150/3
f 90/145/3 100/174/3 101/146/3
f 90/145/8 94/173/8 102/150/8
f 94/175/4 90/214/4 89/176/4
f 97/177/4 92/215/4 94/175/4
