# Blender 5.0.1
# www.blender.org
mtllib part1.mtl
o Default_Stair.003
v 0.000000 0.000000 0.381000
v 0.076200 0.000000 0.381000
v 0.000000 0.000000 0.685800
v 0.076200 0.000000 0.685800
v 0.152400 0.000000 0.381000
v 0.152400 0.000000 0.685800
v 0.228600 0.000000 0.381000
v 0.228600 0.000000 0.685800
v 0.304800 0.000000 0.381000
v 0.304800 0.000000 0.685800
v 0.000000 0.038100 0.381000
v 0.076200 0.038100 0.381000
v 0.000000 0.038100 0.685800
v 0.076200 0.038100 0.685800
v 0.152400 0.038100 0.381000
v 0.152400 0.038100 0.685800
v 0.228600 0.038100 0.381000
v 0.228600 0.038100 0.685800
v 0.304800 0.038100 0.381000
v 0.304800 0.038100 0.685800
v 0.076200 0.076200 0.381000
v 0.076200 0.076200 0.685800
v 0.152400 0.076200 0.381000
v 0.152400 0.076200 0.685800
v 0.228600 0.076200 0.381000
v 0.228600 0.076200 0.685800
v 0.304800 0.076200 0.381000
v 0.304800 0.076200 0.685800
v 0.152400 0.114300 0.381000
v 0.152400 0.114300 0.685800
v 0.228600 0.114300 0.381000
v 0.228600 0.114300 0.685800
v 0.304800 0.114300 0.381000
v 0.304800 0.114300 0.685800
v 0.228600 0.152400 0.381000
v 0.228600 0.152400 0.685800
v 0.304800 0.152400 0.381000
v 0.304800 0.152400 0.685800
v 0.076200 0.000000 0.533400
v 0.000000 0.000000 0.533400
v 0.152400 0.000000 0.533400
v 0.228600 0.000000 0.533400
v 0.304800 0.000000 0.533400
v 0.304800 0.038100 0.533400
v 0.304800 0.076200 0.533400
v 0.304800 0.114300 0.533400
v 0.304800 0.152400 0.533400
v 0.000000 0.000000 0.419100
v 0.000000 0.038100 0.419100
v 0.076200 0.000000 0.419100
v 0.152400 0.000000 0.419100
v 0.228600 0.000000 0.419100
v 0.304800 0.000000 0.419100
v 0.076200 0.038100 0.419100
v 0.304800 0.038100 0.419100
v 0.076200 0.076200 0.419100
v 0.152400 0.076200 0.419100
v 0.304800 0.076200 0.419100
v 0.152400 0.114300 0.419100
v 0.228600 0.114300 0.419100
v 0.304800 0.114300 0.419100
v 0.228600 0.152400 0.419100
v 0.304800 0.152400 0.419100
v 0.019050 0.000000 0.381000
v 0.019050 0.000000 0.685800
v 0.019050 0.038100 0.381000
v 0.019050 0.038100 0.685800
v 0.019050 0.000000 0.533400
v 0.019050 0.000000 0.419100
v 0.019050 0.038100 0.419100
v 0.285750 0.000000 0.381000
v 0.285750 0.038100 0.381000
v 0.285750 0.076200 0.381000
v 0.285750 0.114300 0.381000
v 0.285750 0.152400 0.381000
v 0.285750 0.000000 0.685800
v 0.285750 0.038100 0.685800
v 0.285750 0.076200 0.685800
v 0.285750 0.114300 0.685800
v 0.285750 0.152400 0.685800
v 0.285750 0.000000 0.533400
v 0.285750 0.152400 0.419100
v 0.285750 0.000000 0.419100
v 0.000000 0.152400 0.419100
v 0.000000 0.152400 0.381000
v 0.019050 0.152400 0.419100
v 0.019050 0.152400 0.381000
v 0.285750 0.266700 0.381000
v 0.304800 0.266700 0.381000
v 0.304800 0.266700 0.419100
v 0.285750 0.266700 0.419100
v 0.304800 0.304800 0.381000
v 0.304800 0.304800 0.419100
v 0.000000 0.152400 0.419100
v 0.019050 0.152400 0.419100
v 0.285750 0.266700 0.419100
v 0.304800 0.266700 0.419100
v 0.304800 0.304800 0.419100
v 0.000000 0.000000 0.685800
v 0.000000 0.038100 0.685800
vn -0.0000 1.0000 -0.0000
vn -0.0000 -1.0000 -0.0000
vn -0.0000 -0.0000 1.0000
vn -1.0000 -0.0000 -0.0000
vn -0.0000 -0.0000 -1.0000
vn 1.0000 -0.0000 -0.0000
vn -0.4472 0.8944 -0.0000
vn 0.3939 -0.9191 -0.0000
vt 0.321446 0.463494
vt 0.321446 0.421412
vt 0.326705 0.421412
vt 0.326705 0.463494
vt 0.529406 0.703836
vt 0.529406 0.714357
vt 0.508375 0.714357
vt 0.508375 0.703836
vt 0.394288 0.703836
vt 0.394288 0.714357
vt 0.373256 0.714357
vt 0.373256 0.703836
vt 0.247824 0.389851
vt 0.242565 0.389851
vt 0.242565 0.379331
vt 0.247824 0.379331
vt 0.086387 0.186331
vt 0.086387 0.191591
vt 0.075866 0.191591
vt 0.075866 0.186331
vt 0.305670 0.389851
vt 0.284635 0.389851
vt 0.284635 0.379331
vt 0.305670 0.379331
vt 0.316208 0.290721
vt 0.316208 0.332803
vt 0.305688 0.332803
vt 0.305688 0.290721
vt 0.321446 0.389851
vt 0.321446 0.379331
vt 0.086387 0.170550
vt 0.075866 0.170550
vt 0.613569 0.102167
vt 0.613569 0.107427
vt 0.603049 0.107427
vt 0.603049 0.102167
vt 0.263600 0.389851
vt 0.263600 0.379331
vt 0.603049 0.065346
vt 0.603049 0.086387
vt 0.592528 0.086387
vt 0.592528 0.065346
vt 0.096907 0.186331
vt 0.096907 0.191591
vt 0.613569 0.044305
vt 0.613569 0.065346
vt 0.603049 0.044305
vt 0.613569 0.086387
vt 0.096907 0.096907
vt 0.096907 0.107427
vt 0.086387 0.107427
vt 0.086387 0.096907
vt 0.305670 0.421412
vt 0.284635 0.421412
vt 0.326729 0.290721
vt 0.326729 0.332803
vt 0.065346 0.191591
vt 0.065346 0.186331
vt 0.096907 0.149509
vt 0.096907 0.170550
vt 0.086387 0.149509
vt 0.096907 0.128468
vt 0.086387 0.128468
vt 0.958049 0.703836
vt 0.958049 0.714357
vt 0.947529 0.714357
vt 0.947529 0.703836
vt 0.065346 0.170550
vt 0.592528 0.044305
vt 0.263600 0.421412
vt 0.603049 0.028524
vt 0.592528 0.028524
vt 0.075866 0.149509
vt 0.960270 0.844462
vt 0.960270 0.854982
vt 0.949750 0.854982
vt 0.949750 0.844462
vt 0.582008 0.028524
vt 0.582008 0.044305
vt 0.571487 0.044305
vt 0.571487 0.028524
vt 0.582008 0.065346
vt 0.284647 0.248639
vt 0.284647 0.259160
vt 0.253085 0.259160
vt 0.253085 0.248639
vt 0.325064 0.854982
vt 0.325064 0.865503
vt 0.314543 0.865503
vt 0.314543 0.854982
vt 0.054825 0.191591
vt 0.054825 0.186331
vt 0.295167 0.332803
vt 0.295167 0.290721
vt 0.096907 0.112688
vt 0.086387 0.112688
vt 0.662648 0.970748
vt 0.613569 0.028524
vt 0.461847 0.714357
vt 0.446073 0.714357
vt 0.446073 0.703836
vt 0.461847 0.703836
vt 0.316208 0.259160
vt 0.305688 0.259160
vt 0.326729 0.259160
vt 0.295167 0.259160
vt 0.284647 0.290721
vt 0.326705 0.389851
vt 0.247824 0.463494
vt 0.247824 0.421412
vt 0.263600 0.463494
vt 0.575933 0.703836
vt 0.591707 0.703836
vt 0.591707 0.714357
vt 0.575933 0.714357
vt 0.295167 0.248639
vt 0.305688 0.248639
vt 0.326729 0.248639
vt 0.316208 0.248639
vt 0.284635 0.463494
vt 0.305670 0.463494
vt 0.075866 0.128468
vt 0.373256 0.630193
vt 0.394288 0.630193
vt 0.054825 0.170550
vt 0.508375 0.630193
vt 0.529406 0.630193
vt 0.325064 0.781339
vt 0.314543 0.781339
vt 0.575934 0.630193
vt 0.591707 0.630193
vt 0.596965 0.630193
vt 0.596965 0.703836
vt 0.960270 0.770819
vt 0.949750 0.770819
vt 0.958049 0.630193
vt 0.947529 0.630193
vt 0.096907 0.023264
vt 0.096907 0.065346
vt 0.086387 0.023264
vt 0.065346 0.149509
vt 0.054825 0.112688
vt 0.054825 0.107427
vt 0.326705 0.379331
vt 0.284647 0.332803
vt 0.242565 0.463494
vt 0.242565 0.421412
vt 0.613569 0.023264
vt 0.603049 0.023264
vt 0.592528 0.023264
vt 0.582008 0.023264
vt 0.571487 0.023264
vt 0.122394 0.851234
vt 0.122394 0.856491
vt 0.111874 0.856491
vt 0.111874 0.851234
vt 0.565442 0.185517
vt 0.554922 0.185517
vt 0.554922 0.153955
vt 0.565442 0.153955
vt 0.054825 0.096907
vt 0.897962 0.933071
vt 0.892702 0.933071
vt 0.892702 0.901510
vt 0.897962 0.901510
vt 0.122394 0.776663
vt 0.111874 0.776663
vt 0.111874 0.771405
vt 0.122394 0.771405
vt 0.241739 0.933658
vt 0.236479 0.933658
vt 0.236479 0.902096
vt 0.241739 0.902096
vt 0.023264 0.191591
vt 0.023264 0.186331
vt 0.622491 0.185517
vt 0.611970 0.185517
vt 0.611970 0.153955
vt 0.622491 0.153955
vt 0.242565 0.259160
vt 0.242565 0.248639
vt 0.834630 0.489568
vt 0.834630 0.583665
vt 0.832277 0.578960
vt 0.827572 0.498977
vt 0.825220 0.494272
vt 0.846174 0.770819
vt 0.846174 0.855954
vt 0.835653 0.855954
vt 0.835653 0.770819
vt 0.242565 0.238119
vt 0.253085 0.238119
vt 0.440815 0.703836
vt 0.440816 0.672275
vt 0.440816 0.630193
vt 0.446073 0.630193
vt 0.461847 0.630193
vt 0.000000 0.000000
s 0
usemtl Stairs
f 65/1/1 68/2/1 40/3/1 3/4/1
f 56/5/2 21/6/2 23/7/2 57/8/2
f 59/9/2 29/10/2 31/11/2 60/12/2
f 83/13/1 53/14/1 9/15/1 71/16/1
f 72/17/3 19/18/3 27/19/3 73/20/3
f 50/21/1 51/22/1 5/23/1 2/24/1
f 44/25/4 20/26/4 28/27/4 45/28/4
f 69/29/1 50/21/1 2/24/1 64/30/1
f 17/31/3 72/17/3 73/20/3 25/32/3
f 65/33/5 3/34/5 13/35/5 67/36/5
f 51/22/1 52/37/1 7/38/1 5/23/1
f 16/39/5 14/40/5 22/41/5 24/42/5
f 71/43/3 9/44/3 19/18/3 72/17/3
f 8/45/5 6/46/5 16/39/5 18/47/5
f 6/46/5 4/48/5 14/40/5 16/39/5
f 48/49/6 1/50/6 11/51/6 49/52/6
f 39/53/1 41/54/1 51/22/1 50/21/1
f 43/55/4 10/56/4 20/26/4 44/25/4
f 73/20/3 27/19/3 33/57/3 74/58/3
f 5/59/3 7/60/3 17/31/3 15/61/3
f 2/62/3 5/59/3 15/61/3 12/63/3
f 54/64/6 12/65/6 21/66/6 56/67/6
f 25/32/3 73/20/3 74/58/3 31/68/3
f 18/47/5 16/39/5 24/42/5 26/69/5
f 41/54/1 42/70/1 52/37/1 51/22/1
f 77/71/5 18/47/5 26/69/5 78/72/5
f 15/61/3 17/31/3 25/32/3 23/73/3
f 57/74/6 23/75/6 29/76/6 59/77/6
f 79/78/5 32/79/5 36/80/5 80/81/5
f 26/69/5 24/42/5 30/82/5 32/79/5
f 37/83/4 63/84/4 90/85/4 89/86/4
f 60/87/6 31/88/6 35/89/6 62/90/6
f 74/58/3 33/57/3 37/91/3 75/92/3
f 45/28/4 28/27/4 34/93/4 46/94/4
f 64/95/3 2/62/3 12/63/3 66/96/3
f 3/97/1 13/97/1 100/97/1 99/97/1
f 78/72/5 26/69/5 32/79/5 79/78/5
f 7/60/3 71/43/3 72/17/3 17/31/3
f 76/98/5 8/45/5 18/47/5 77/71/5
f 52/37/1 83/13/1 71/16/1 7/38/1
f 35/99/2 75/100/2 82/101/2 62/102/2
f 55/103/4 44/25/4 45/28/4 58/104/4
f 53/105/4 43/55/4 44/25/4 55/103/4
f 58/104/4 45/28/4 46/94/4 61/106/4
f 61/106/4 46/94/4 47/107/4 63/84/4
f 48/108/1 40/3/1 68/2/1 69/29/1
f 76/109/1 81/110/1 42/70/1 8/111/1
f 54/112/2 70/113/2 66/114/2 12/115/2
f 33/116/4 61/106/4 63/84/4 37/83/4
f 27/117/4 58/104/4 61/106/4 33/116/4
f 9/118/4 53/105/4 55/103/4 19/119/4
f 19/119/4 55/103/4 58/104/4 27/117/4
f 68/2/1 39/53/1 50/21/1 69/29/1
f 8/111/1 42/70/1 41/54/1 6/120/1
f 6/120/1 41/54/1 39/53/1 4/121/1
f 12/63/3 15/61/3 23/73/3 21/122/3
f 59/9/2 60/12/2 32/123/2 30/124/2
f 31/68/3 74/58/3 75/92/3 35/125/3
f 56/5/2 57/8/2 24/126/2 22/127/2
f 4/48/5 65/33/5 67/36/5 14/40/5
f 32/128/6 60/87/6 62/90/6 36/129/6
f 14/130/2 67/131/2 13/132/2 49/133/2 70/113/2 54/112/2
f 24/134/6 57/74/6 59/77/6 30/135/6
f 14/136/6 54/64/6 56/67/6 22/137/6
f 3/138/6 40/139/6 48/49/6 49/52/6 13/140/6
f 23/73/3 25/32/3 31/68/3 29/141/3
f 11/51/3 66/96/3 87/142/3 85/143/3
f 81/110/1 83/13/1 52/37/1 42/70/1
f 1/144/1 48/108/1 69/29/1 64/30/1
f 4/121/1 39/53/1 68/2/1 65/1/1
f 46/94/4 34/93/4 38/145/4 47/107/4
f 1/50/3 64/95/3 66/96/3 11/51/3
f 10/146/1 43/147/1 81/110/1 76/109/1
f 81/110/1 43/147/1 53/14/1 83/13/1
f 10/148/5 76/98/5 77/71/5 20/149/5
f 20/149/5 77/71/5 78/72/5 28/150/5
f 34/151/5 79/78/5 80/81/5 38/152/5
f 28/150/5 78/72/5 79/78/5 34/151/5
f 86/153/2 84/154/2 85/155/2 87/156/2
f 66/157/4 70/158/4 86/159/4 87/160/4
f 49/52/6 11/51/6 85/143/6 84/161/6
f 70/162/5 49/163/5 84/164/5 86/165/5
f 91/166/2 88/167/2 89/168/2 90/169/2
f 63/170/5 82/171/5 91/172/5 90/173/5
f 75/92/3 37/91/3 89/174/3 88/175/3
f 82/176/6 75/177/6 88/178/6 91/179/6
f 89/86/4 90/85/4 93/180/4 92/181/4
f 88/167/2 89/168/2 97/169/2 96/166/2
f 98/182/3 94/183/3 95/184/3 96/185/3 97/186/3
f 92/187/7 85/188/7 94/189/7 98/190/7
f 89/86/6 92/181/6 98/191/6 97/192/6
f 85/155/2 87/156/2 95/153/2 94/154/2
f 87/156/8 88/167/8 96/166/8 95/153/8
f 62/102/2 82/101/2 63/193/2 47/194/2 38/195/2 80/196/2 36/197/2
f 85/198/5 92/198/5 89/198/5 88/198/5 87/198/5
