# Blender 5.0.1
# www.blender.org
mtllib part3.mtl
o Default_Stair.004
v 0.000000 0.000000 0.000000
v 0.076200 0.000000 0.000000
v 0.000000 0.000000 0.304800
v 0.076200 0.000000 0.304800
v 0.152400 0.000000 0.000000
v 0.152400 0.000000 0.304800
v 0.228600 0.000000 0.000000
v 0.228600 0.000000 0.304800
v 0.304800 0.000000 0.000000
v 0.304800 0.000000 0.304800
v 0.000000 0.038100 0.000000
v 0.076200 0.038100 0.000000
v 0.000000 0.038100 0.304800
v 0.076200 0.038100 0.304800
v 0.152400 0.038100 0.304800
v 0.228600 0.038100 0.304800
v 0.304800 0.038100 0.000000
v 0.304800 0.038100 0.304800
v 0.076200 0.076200 0.000000
v 0.076200 0.076200 0.304800
v 0.152400 0.076200 0.000000
v 0.152400 0.076200 0.304800
v 0.228600 0.076200 0.304800
v 0.304800 0.076200 0.000000
v 0.304800 0.076200 0.304800
v 0.152400 0.114300 0.000000
v 0.152400 0.114300 0.304800
v 0.228600 0.114300 0.000000
v 0.228600 0.114300 0.304800
v 0.304800 0.114300 0.000000
v 0.304800 0.114300 0.304800
v 0.228600 0.152400 0.000000
v 0.228600 0.152400 0.304800
v 0.304800 0.152400 0.000000
v 0.304800 0.152400 0.304800
v 0.076200 0.000000 0.152400
v 0.000000 0.000000 0.152400
v 0.152400 0.000000 0.152400
v 0.228600 0.000000 0.152400
v 0.304800 0.000000 0.152400
v 0.304800 0.038100 0.152400
v 0.304800 0.076200 0.152400
v 0.304800 0.114300 0.152400
v 0.304800 0.152400 0.152400
v 0.076200 0.000000 0.266700
v 0.152400 0.000000 0.266700
v 0.228600 0.000000 0.266700
v 0.304800 0.000000 0.266700
v 0.152400 0.000000 0.266700
v 0.304800 0.038100 0.266700
v 0.076200 0.000000 0.266700
v 0.304800 0.076200 0.266700
v 0.152400 0.114300 0.266700
v 0.228600 0.114300 0.266700
v 0.304800 0.114300 0.266700
v 0.228600 0.152400 0.266700
v 0.304800 0.152400 0.266700
v 0.000000 0.000000 0.266700
v 0.000000 0.038100 0.266700
v 0.019050 0.038100 0.304800
v 0.019050 0.038100 0.266700
v 0.285750 0.152400 0.304800
v 0.285750 0.152400 0.266700
v 0.000000 0.152400 0.304800
v 0.000000 0.152400 0.266700
v 0.019050 0.152400 0.266700
v 0.019050 0.152400 0.304800
v 0.304800 0.266700 0.266700
v 0.304800 0.266700 0.304800
v 0.285750 0.266700 0.266700
v 0.285750 0.266700 0.304800
v 0.304800 0.304800 0.266700
v 0.304800 0.304800 0.304800
v 0.019050 0.152400 0.304800
v 0.000000 0.152400 0.304800
v 0.285750 0.266700 0.304800
v 0.304800 0.266700 0.304800
v 0.304800 0.304800 0.304800
v 0.076200 0.000000 0.266700
v 0.152400 0.000000 0.266700
v 0.228600 0.000000 0.266700
v 0.304800 0.000000 0.266700
v 0.304800 0.038100 0.266700
v 0.304800 0.076200 0.266700
v 0.152400 0.114300 0.266700
v 0.228600 0.114300 0.266700
v 0.304800 0.114300 0.266700
v 0.228600 0.152400 0.266700
v 0.304800 0.152400 0.266700
v 0.000000 0.000000 0.266700
v 0.000000 0.038100 0.266700
v 0.285750 0.152400 0.266700
v 0.228600 0.000000 0.266700
v 0.304800 0.000000 0.266700
v 0.304800 0.038100 0.266700
v 0.304800 0.076200 0.266700
v 0.152400 0.114300 0.266700
v 0.228600 0.114300 0.266700
v 0.304800 0.114300 0.266700
v 0.228600 0.152400 0.266700
v 0.304800 0.152400 0.266700
v 0.000000 0.000000 0.266700
v 0.000000 0.038100 0.266700
v 0.285750 0.152400 0.266700
v 0.152400 0.000000 0.266700
v 0.076200 0.000000 0.266700
v 0.228600 0.000000 0.266700
v 0.304800 0.000000 0.266700
v 0.304800 0.038100 0.266700
v 0.304800 0.076200 0.266700
v 0.152400 0.114300 0.266700
v 0.228600 0.114300 0.266700
v 0.304800 0.114300 0.266700
v 0.228600 0.152400 0.266700
v 0.304800 0.152400 0.266700
v 0.000000 0.000000 0.266700
v 0.000000 0.038100 0.266700
v 0.285750 0.152400 0.266700
v 0.152400 0.000000 0.266700
v 0.076200 0.000000 0.266700
v 0.228600 0.000000 0.266700
v 0.304800 0.000000 0.266700
v 0.304800 0.038100 0.266700
v 0.304800 0.076200 0.266700
v 0.152400 0.114300 0.266700
v 0.228600 0.114300 0.266700
v 0.304800 0.114300 0.266700
v 0.228600 0.152400 0.266700
v 0.304800 0.152400 0.266700
v 0.000000 0.000000 0.266700
v 0.000000 0.038100 0.266700
v 0.285750 0.152400 0.266700
v 0.152400 0.000000 0.266700
v 0.076200 0.000000 0.266700
v 0.228600 0.000000 0.266700
v 0.304800 0.000000 0.266700
v 0.304800 0.038100 0.266700
v 0.304800 0.076200 0.266700
v 0.152400 0.114300 0.266700
v 0.228600 0.114300 0.266700
v 0.304800 0.114300 0.266700
v 0.228600 0.152400 0.266700
v 0.304800 0.152400 0.266700
v 0.000000 0.000000 0.266700
v 0.000000 0.038100 0.266700
v 0.285750 0.152400 0.266700
v 0.152400 0.000000 0.266700
v 0.076200 0.000000 0.266700
v 0.228600 0.000000 0.266700
v 0.304800 0.000000 0.266700
v 0.304800 0.038100 0.266700
v 0.304800 0.076200 0.266700
v 0.152400 0.114300 0.266700
v 0.228600 0.114300 0.266700
v 0.304800 0.114300 0.266700
v 0.228600 0.152400 0.266700
v 0.304800 0.152400 0.266700
v 0.000000 0.000000 0.266700
v 0.000000 0.038100 0.266700
v 0.285750 0.152400 0.266700
v 0.152400 0.000000 0.266700
v 0.076200 0.000000 0.266700
v 0.228600 0.000000 0.266700
v 0.304800 0.000000 0.266700
v 0.304800 0.038100 0.266700
v 0.304800 0.076200 0.266700
v 0.152400 0.114300 0.266700
v 0.228600 0.114300 0.266700
v 0.304800 0.114300 0.266700
v 0.228600 0.152400 0.266700
v 0.304800 0.152400 0.266700
v 0.000000 0.000000 0.266700
v 0.000000 0.038100 0.266700
v 0.285750 0.152400 0.266700
vn -0.0000 1.0000 -0.0000
vn -1.0000 -0.0000 -0.0000
vn -0.0000 -1.0000 -0.0000
vn -0.0000 -0.0000 -1.0000
vn 1.0000 -0.0000 -0.0000
vn -0.0000 -0.0000 1.0000
vn -0.4472 0.8944 -0.0000
vn 0.3939 -0.9191 -0.0000
vt 0.457369 0.541583
vt 0.436341 0.499502
vt 0.457369 0.499502
vt 0.944490 0.958559
vt 0.446900 0.452974
vt 0.436379 0.442453
vt 0.446900 0.442453
vt 0.252245 0.714357
vt 0.246988 0.640714
vt 0.268015 0.640714
vt 0.457420 0.452974
vt 0.457420 0.442453
vt 0.577591 0.322282
vt 0.567070 0.317022
vt 0.567070 0.301242
vt 0.732077 0.703836
vt 0.711050 0.630193
vt 0.732077 0.630193
vt 0.556550 0.280201
vt 0.567070 0.280201
vt 0.577591 0.280201
vt 0.567070 0.259160
vt 0.577591 0.259160
vt 0.577591 0.301242
vt 0.780278 0.280201
vt 0.775021 0.311762
vt 0.759251 0.311762
vt 0.305688 0.065346
vt 0.295167 0.107427
vt 0.295167 0.033784
vt 0.436379 0.452974
vt 0.425859 0.442453
vt 0.295167 0.191591
vt 0.284647 0.191591
vt 0.274126 0.170550
vt 0.556550 0.259160
vt 0.727660 0.107427
vt 0.748687 0.023264
vt 0.748687 0.107427
vt 0.556550 0.238119
vt 0.567070 0.238119
vt 0.711050 0.714357
vt 0.711050 0.703836
vt 0.546030 0.259160
vt 0.535509 0.243379
vt 0.535509 0.238119
vt 0.425859 0.452974
vt 0.415338 0.442453
vt 0.305688 0.128468
vt 0.305688 0.107427
vt 0.415313 0.583665
vt 0.436341 0.573145
vt 0.436341 0.583665
vt 0.394285 0.583665
vt 0.415313 0.573145
vt 0.759251 0.322282
vt 0.577591 0.238119
vt 0.373256 0.583665
vt 0.394285 0.573145
vt 0.457369 0.573145
vt 0.436379 0.410892
vt 0.425859 0.368810
vt 0.436379 0.368810
vt 0.457420 0.410892
vt 0.446900 0.368810
vt 0.457420 0.368810
vt 0.446900 0.410892
vt 0.373256 0.573145
vt 0.394285 0.541583
vt 0.425859 0.410892
vt 0.415338 0.368810
vt 0.373256 0.541583
vt 0.394285 0.499502
vt 0.546030 0.238119
vt 0.415313 0.499502
vt 0.415313 0.541583
vt 0.305688 0.170550
vt 0.274126 0.149509
vt 0.284647 0.149509
vt 0.436341 0.541583
vt 0.893264 0.322282
vt 0.882743 0.238119
vt 0.893264 0.238119
vt 0.543291 0.924545
vt 0.548551 0.892984
vt 0.548551 0.924545
vt 0.305688 0.033784
vt 0.295167 0.023264
vt 0.305688 0.023264
vt 0.457369 0.583665
vt 0.305688 0.149509
vt 0.284647 0.128468
vt 0.295167 0.128468
vt 0.959989 0.153955
vt 0.567070 0.322282
vt 0.535509 0.317022
vt 0.415338 0.410892
vt 0.657387 0.840874
vt 0.667908 0.846131
vt 0.657387 0.846131
vt 0.263606 0.023264
vt 0.429194 0.926965
vt 0.434454 0.895404
vt 0.434454 0.926965
vt 0.440825 0.185517
vt 0.451346 0.153955
vt 0.451346 0.185517
vt 0.657387 0.766141
vt 0.667908 0.760885
vt 0.667908 0.766141
vt 0.497874 0.185517
vt 0.508394 0.153955
vt 0.508394 0.185517
vt 0.503948 0.238119
vt 0.415338 0.452974
vt 0.383777 0.442453
vt 0.383777 0.452974
vt 0.373256 0.442453
vt 0.783115 0.174996
vt 0.793636 0.185517
vt 0.783115 0.185517
vt 0.771635 0.498977
vt 0.778692 0.489568
vt 0.778692 0.583665
vt 0.553811 0.846456
vt 0.543291 0.760885
vt 0.553811 0.760885
vt 0.657387 0.760885
vt 0.667908 0.840874
vt 0.785662 0.639603
vt 0.778605 0.724291
vt 0.778605 0.630193
vt 0.111874 0.960068
vt 0.236479 0.781925
vt 0.247000 0.771405
vt 0.247000 0.781925
vt 0.901001 0.714357
vt 0.890480 0.640714
vt 0.890480 0.630193
vt 0.268015 0.724877
vt 0.252245 0.724877
vt 0.246988 0.714357
vt 0.556550 0.301242
vt 0.759251 0.238119
vt 0.780278 0.238119
vt 0.780278 0.311762
vt 0.274126 0.191591
vt 0.263606 0.191591
vt 0.263606 0.170550
vt 0.305688 0.191591
vt 0.727660 0.023264
vt 0.732077 0.714357
vt 0.535509 0.259160
vt 0.546030 0.280201
vt 0.775021 0.322282
vt 0.373256 0.499502
vt 0.882743 0.322282
vt 0.543291 0.892984
vt 0.535509 0.322282
vt 0.263606 0.033784
vt 0.429194 0.895404
vt 0.440825 0.153955
vt 0.497874 0.153955
vt 0.503948 0.243379
vt 0.373256 0.452974
vt 0.793636 0.174996
vt 0.776340 0.578960
vt 0.769282 0.494272
vt 0.543291 0.846456
vt 0.780957 0.719586
vt 0.788015 0.634898
vt 0.247000 0.855569
vt 0.236479 0.855569
vt 0.236479 0.771405
vt 0.901001 0.630193
vt 0.890480 0.714357
s 0
usemtl Stairs
f 37/1/1 2/2/1 1/3/1
f 91/4/1 102/4/1 103/4/1
f 18/5/2 52/6/2 50/7/2
f 61/8/3 11/9/3 12/10/3
f 10/11/2 50/7/2 48/12/2
f 90/4/1 51/4/1 102/4/1
f 3/13/4 60/14/4 14/15/4
f 54/16/3 26/17/3 28/18/3
f 14/15/4 22/19/4 15/20/4
f 6/21/4 16/22/4 8/23/4
f 4/24/4 15/20/4 6/21/4
f 44/25/3 63/26/3 56/27/3
f 37/28/5 11/29/5 59/30/5
f 25/31/2 55/32/2 52/6/2
f 87/4/1 96/4/1 99/4/1
f 17/33/6 24/34/6 28/35/6
f 15/20/4 23/36/4 16/22/4
f 20/37/3 21/38/3 22/39/3
f 16/22/4 25/40/4 18/41/4
f 54/16/3 27/42/3 53/43/3
f 29/44/4 62/45/4 35/46/4
f 22/19/4 29/44/4 23/36/4
f 31/47/2 57/48/2 55/32/2
f 2/49/6 11/29/6 1/50/6
f 6/51/1 45/52/1 4/53/1
f 8/54/1 46/55/1 6/51/1
f 63/26/3 33/56/3 56/27/3
f 8/23/4 18/41/4 10/57/4
f 10/58/1 47/59/1 8/54/1
f 45/52/1 37/1/1 58/60/1
f 42/61/2 30/62/2 24/63/2
f 40/64/2 17/65/2 9/66/2
f 41/67/2 24/63/2 17/65/2
f 48/68/1 39/69/1 47/59/1
f 43/70/2 34/71/2 30/62/2
f 40/72/1 7/73/1 39/69/1
f 23/36/4 31/74/4 25/40/4
f 39/69/1 5/75/1 38/76/1
f 7/77/6 26/78/6 21/79/6
f 38/76/1 2/2/1 36/80/1
f 12/81/5 20/82/5 14/83/5
f 57/84/6 70/85/6 63/86/6
f 81/4/1 49/4/1 93/4/1
f 58/87/5 13/88/5 3/89/5
f 3/90/1 45/52/1 58/60/1
f 52/6/2 43/70/2 42/61/2
f 48/12/2 41/67/2 40/64/2
f 50/7/2 42/61/2 41/67/2
f 5/91/6 19/92/6 12/93/6
f 45/52/1 38/76/1 36/80/1
f 92/94/1 100/94/1 104/94/1
f 46/55/1 39/69/1 38/76/1
f 13/95/4 67/96/4 60/14/4
f 55/32/2 44/97/2 43/70/2
f 66/98/3 64/99/3 65/100/3
f 59/30/5 64/101/5 13/88/5
f 61/102/6 65/103/6 59/104/6
f 60/105/2 66/106/2 61/107/2
f 70/108/3 69/109/3 71/110/3
f 63/111/5 71/112/5 62/113/5
f 62/45/4 69/114/4 35/46/4
f 35/115/2 68/116/2 57/48/2
f 69/117/2 72/118/2 68/116/2
f 68/119/5 78/120/5 77/121/5
f 76/122/6 78/123/6 75/124/6
f 65/125/7 78/126/7 72/127/7
f 68/128/3 76/110/3 70/108/3
f 66/98/3 75/99/3 65/100/3
f 70/108/8 74/129/8 66/98/8
f 70/130/4 65/131/4 72/132/4
f 48/4/1 81/4/1 82/4/1
f 46/4/1 79/4/1 80/4/1
f 50/4/1 82/4/1 83/4/1
f 59/4/1 90/4/1 91/4/1
f 58/4/1 79/4/1 90/4/1
f 52/4/1 83/4/1 84/4/1
f 54/133/1 85/133/1 86/133/1
f 57/4/1 87/4/1 89/4/1
f 63/94/1 88/94/1 92/94/1
f 47/4/1 80/4/1 81/4/1
f 55/4/1 84/4/1 87/4/1
f 56/134/5 29/135/5 54/136/5
f 83/4/1 94/4/1 95/4/1
f 80/4/1 51/4/1 49/4/1
f 82/4/1 93/4/1 94/4/1
f 86/133/1 97/133/1 98/133/1
f 84/4/1 95/4/1 96/4/1
f 89/4/1 99/4/1 101/4/1
f 104/94/1 114/94/1 118/94/1
f 95/4/1 108/4/1 109/4/1
f 103/4/1 116/4/1 117/4/1
f 49/4/1 106/4/1 105/4/1
f 94/4/1 107/4/1 108/4/1
f 96/4/1 109/4/1 110/4/1
f 98/133/1 111/133/1 112/133/1
f 102/4/1 106/4/1 116/4/1
f 99/4/1 110/4/1 113/4/1
f 93/4/1 105/4/1 107/4/1
f 101/4/1 113/4/1 115/4/1
f 112/133/1 125/133/1 126/133/1
f 116/4/1 120/4/1 130/4/1
f 107/4/1 119/4/1 121/4/1
f 113/4/1 124/4/1 127/4/1
f 118/94/1 128/94/1 132/94/1
f 109/4/1 122/4/1 123/4/1
f 115/4/1 127/4/1 129/4/1
f 108/4/1 121/4/1 122/4/1
f 117/4/1 130/4/1 131/4/1
f 110/4/1 123/4/1 124/4/1
f 105/4/1 120/4/1 119/4/1
f 122/4/1 135/4/1 136/4/1
f 131/4/1 144/4/1 145/4/1
f 124/4/1 137/4/1 138/4/1
f 119/4/1 134/4/1 133/4/1
f 126/133/1 139/133/1 140/133/1
f 130/4/1 134/4/1 144/4/1
f 121/4/1 133/4/1 135/4/1
f 127/4/1 138/4/1 141/4/1
f 132/94/1 142/94/1 146/94/1
f 123/4/1 136/4/1 137/4/1
f 129/4/1 141/4/1 143/4/1
f 141/4/1 152/4/1 155/4/1
f 146/94/1 156/94/1 160/94/1
f 137/4/1 150/4/1 151/4/1
f 143/4/1 155/4/1 157/4/1
f 136/4/1 149/4/1 150/4/1
f 145/4/1 158/4/1 159/4/1
f 138/4/1 151/4/1 152/4/1
f 133/4/1 148/4/1 147/4/1
f 140/133/1 153/133/1 154/133/1
f 144/4/1 148/4/1 158/4/1
f 135/4/1 147/4/1 149/4/1
f 154/133/1 167/133/1 168/133/1
f 158/4/1 162/4/1 172/4/1
f 149/4/1 161/4/1 163/4/1
f 155/4/1 166/4/1 169/4/1
f 160/94/1 170/94/1 174/94/1
f 151/4/1 164/4/1 165/4/1
f 157/4/1 169/4/1 171/4/1
f 150/4/1 163/4/1 164/4/1
f 159/4/1 172/4/1 173/4/1
f 152/4/1 165/4/1 166/4/1
f 147/4/1 162/4/1 161/4/1
f 21/137/5 53/138/5 27/139/5
f 37/1/1 36/80/1 2/2/1
f 91/4/1 90/4/1 102/4/1
f 18/5/2 25/31/2 52/6/2
f 12/10/3 14/140/3 60/141/3
f 61/8/3 59/142/3 11/9/3
f 12/10/3 60/141/3 61/8/3
f 10/11/2 18/5/2 50/7/2
f 90/4/1 79/4/1 51/4/1
f 14/15/4 4/24/4 3/13/4
f 3/13/4 13/95/4 60/14/4
f 54/16/3 53/43/3 26/17/3
f 14/15/4 20/143/4 22/19/4
f 6/21/4 15/20/4 16/22/4
f 4/24/4 14/15/4 15/20/4
f 56/27/3 32/144/3 34/145/3
f 44/25/3 57/146/3 63/26/3
f 56/27/3 34/145/3 44/25/3
f 59/30/5 58/87/5 37/28/5
f 37/28/5 1/50/5 11/29/5
f 25/31/2 31/47/2 55/32/2
f 87/4/1 84/4/1 96/4/1
f 30/147/6 34/148/6 32/149/6
f 28/35/6 7/77/6 9/150/6
f 30/147/6 32/149/6 28/35/6
f 24/34/6 30/147/6 28/35/6
f 28/35/6 9/150/6 17/33/6
f 15/20/4 22/19/4 23/36/4
f 20/37/3 19/151/3 21/38/3
f 16/22/4 23/36/4 25/40/4
f 54/16/3 29/152/3 27/42/3
f 35/46/4 31/74/4 29/44/4
f 29/44/4 33/153/4 62/45/4
f 22/19/4 27/154/4 29/44/4
f 31/47/2 35/115/2 57/48/2
f 2/49/6 12/93/6 11/29/6
f 6/51/1 46/55/1 45/52/1
f 8/54/1 47/59/1 46/55/1
f 63/26/3 62/155/3 33/56/3
f 8/23/4 16/22/4 18/41/4
f 10/58/1 48/68/1 47/59/1
f 45/52/1 36/80/1 37/1/1
f 42/61/2 43/70/2 30/62/2
f 40/64/2 41/67/2 17/65/2
f 41/67/2 42/61/2 24/63/2
f 48/68/1 40/72/1 39/69/1
f 43/70/2 44/97/2 34/71/2
f 40/72/1 9/156/1 7/73/1
f 23/36/4 29/44/4 31/74/4
f 39/69/1 7/73/1 5/75/1
f 21/79/6 5/91/6 7/77/6
f 7/77/6 28/35/6 26/78/6
f 38/76/1 5/75/1 2/2/1
f 12/81/5 19/157/5 20/82/5
f 57/84/6 68/158/6 70/85/6
f 81/4/1 80/4/1 49/4/1
f 58/87/5 59/30/5 13/88/5
f 3/90/1 4/53/1 45/52/1
f 52/6/2 55/32/2 43/70/2
f 48/12/2 50/7/2 41/67/2
f 50/7/2 52/6/2 42/61/2
f 12/93/6 2/49/6 5/91/6
f 5/91/6 21/79/6 19/92/6
f 45/52/1 46/55/1 38/76/1
f 92/94/1 88/94/1 100/94/1
f 46/55/1 47/59/1 39/69/1
f 13/95/4 64/159/4 67/96/4
f 55/32/2 57/48/2 44/97/2
f 66/98/3 67/129/3 64/99/3
f 59/30/5 65/160/5 64/101/5
f 61/102/6 66/161/6 65/103/6
f 60/105/2 67/162/2 66/106/2
f 70/108/3 68/128/3 69/109/3
f 63/111/5 70/163/5 71/112/5
f 62/45/4 71/164/4 69/114/4
f 35/115/2 69/117/2 68/116/2
f 69/117/2 73/165/2 72/118/2
f 68/119/5 72/166/5 78/120/5
f 75/124/6 74/167/6 76/122/6
f 76/122/6 77/168/6 78/123/6
f 65/125/7 75/169/7 78/126/7
f 68/128/3 77/109/3 76/110/3
f 66/98/3 74/129/3 75/99/3
f 70/108/8 76/110/8 74/129/8
f 70/130/4 66/170/4 65/131/4
f 72/132/4 68/171/4 70/130/4
f 48/4/1 47/4/1 81/4/1
f 46/4/1 45/4/1 79/4/1
f 50/4/1 48/4/1 82/4/1
f 59/4/1 58/4/1 90/4/1
f 58/4/1 45/4/1 79/4/1
f 52/4/1 50/4/1 83/4/1
f 54/133/1 53/133/1 85/133/1
f 57/4/1 55/4/1 87/4/1
f 63/94/1 56/94/1 88/94/1
f 47/4/1 46/4/1 80/4/1
f 55/4/1 52/4/1 84/4/1
f 28/172/5 32/173/5 56/134/5
f 56/134/5 33/174/5 29/135/5
f 54/136/5 28/172/5 56/134/5
f 83/4/1 82/4/1 94/4/1
f 80/4/1 79/4/1 51/4/1
f 82/4/1 81/4/1 93/4/1
f 86/133/1 85/133/1 97/133/1
f 84/4/1 83/4/1 95/4/1
f 89/4/1 87/4/1 99/4/1
f 104/94/1 100/94/1 114/94/1
f 95/4/1 94/4/1 108/4/1
f 103/4/1 102/4/1 116/4/1
f 49/4/1 51/4/1 106/4/1
f 94/4/1 93/4/1 107/4/1
f 96/4/1 95/4/1 109/4/1
f 98/133/1 97/133/1 111/133/1
f 102/4/1 51/4/1 106/4/1
f 99/4/1 96/4/1 110/4/1
f 93/4/1 49/4/1 105/4/1
f 101/4/1 99/4/1 113/4/1
f 112/133/1 111/133/1 125/133/1
f 116/4/1 106/4/1 120/4/1
f 107/4/1 105/4/1 119/4/1
f 113/4/1 110/4/1 124/4/1
f 118/94/1 114/94/1 128/94/1
f 109/4/1 108/4/1 122/4/1
f 115/4/1 113/4/1 127/4/1
f 108/4/1 107/4/1 121/4/1
f 117/4/1 116/4/1 130/4/1
f 110/4/1 109/4/1 123/4/1
f 105/4/1 106/4/1 120/4/1
f 122/4/1 121/4/1 135/4/1
f 131/4/1 130/4/1 144/4/1
f 124/4/1 123/4/1 137/4/1
f 119/4/1 120/4/1 134/4/1
f 126/133/1 125/133/1 139/133/1
f 130/4/1 120/4/1 134/4/1
f 121/4/1 119/4/1 133/4/1
f 127/4/1 124/4/1 138/4/1
f 132/94/1 128/94/1 142/94/1
f 123/4/1 122/4/1 136/4/1
f 129/4/1 127/4/1 141/4/1
f 141/4/1 138/4/1 152/4/1
f 146/94/1 142/94/1 156/94/1
f 137/4/1 136/4/1 150/4/1
f 143/4/1 141/4/1 155/4/1
f 136/4/1 135/4/1 149/4/1
f 145/4/1 144/4/1 158/4/1
f 138/4/1 137/4/1 151/4/1
f 133/4/1 134/4/1 148/4/1
f 140/133/1 139/133/1 153/133/1
f 144/4/1 134/4/1 148/4/1
f 135/4/1 133/4/1 147/4/1
f 154/133/1 153/133/1 167/133/1
f 158/4/1 148/4/1 162/4/1
f 149/4/1 147/4/1 161/4/1
f 155/4/1 152/4/1 166/4/1
f 160/94/1 156/94/1 170/94/1
f 151/4/1 150/4/1 164/4/1
f 157/4/1 155/4/1 169/4/1
f 150/4/1 149/4/1 163/4/1
f 159/4/1 158/4/1 172/4/1
f 152/4/1 151/4/1 165/4/1
f 147/4/1 148/4/1 162/4/1
f 27/139/5 22/175/5 21/137/5
f 21/137/5 26/176/5 53/138/5
