# Blender 5.0.1
# www.blender.org
mtllib part4.mtl
o Default_Stair.005
v 0.000000 0.000000 1.524000
v 0.076200 0.000000 1.524000
v 0.000000 0.000000 1.828800
v 0.076200 0.000000 1.828800
v 0.152400 0.000000 1.524000
v 0.152400 0.000000 1.828800
v 0.228600 0.000000 1.524000
v 0.228600 0.000000 1.828800
v 0.304800 0.000000 1.524000
v 0.304800 0.000000 1.828800
v 0.000000 0.038100 1.524000
v 0.076200 0.038100 1.524000
v 0.000000 0.038100 1.828800
v 0.076200 0.038100 1.828800
v 0.152400 0.038100 1.524000
v 0.152400 0.038100 1.828800
v 0.228600 0.038100 1.524000
v 0.228600 0.038100 1.828800
v 0.304800 0.038100 1.524000
v 0.304800 0.038100 1.828800
v 0.076200 0.076200 1.524000
v 0.076200 0.076200 1.828800
v 0.152400 0.076200 1.524000
v 0.152400 0.076200 1.828800
v 0.228600 0.076200 1.524000
v 0.304800 0.076200 1.524000
v 0.304800 0.076200 1.828800
v 0.152400 0.114300 1.524000
v 0.152400 0.114300 1.828800
v 0.228600 0.114300 1.524000
v 0.228600 0.114300 1.828800
v 0.304800 0.114300 1.524000
v 0.304800 0.114300 1.828800
v 0.228600 0.152400 1.524000
v 0.228600 0.152400 1.828800
v 0.304800 0.152400 1.524000
v 0.304800 0.152400 1.828800
v 0.190500 0.000000 1.828800
v 0.190500 0.000000 1.524000
v 0.190500 0.038100 1.828800
v 0.190500 0.038100 1.524000
v 0.190500 0.076200 1.828800
v 0.190500 0.076200 1.524000
v 0.190500 0.114300 1.828800
v 0.190500 0.114300 1.524000
v 0.266700 0.000000 1.828800
v 0.266700 0.000000 1.524000
v 0.266700 0.038100 1.524000
v 0.266700 0.076200 1.524000
v 0.266700 0.114300 1.524000
v 0.266700 0.152400 1.828800
v 0.266700 0.152400 1.524000
v 0.000000 0.000000 1.562100
v 0.000000 0.038100 1.562100
v 0.228600 0.114300 1.562100
v 0.228600 0.152400 1.562100
v 0.304800 0.152400 1.562100
v 0.266700 0.152400 1.562100
v 0.076200 0.038100 1.790700
v 0.076200 0.076200 1.790700
v 0.152400 0.076200 1.790700
v 0.190500 0.114300 1.828800
v 0.152400 0.114300 1.790700
v 0.228600 0.114300 1.790700
v 0.190500 0.076200 1.828800
v 0.228600 0.152400 1.790700
v 0.304800 0.152400 1.790700
v 0.190500 0.114300 1.790700
v 0.266700 0.152400 1.790700
v 0.190500 0.038100 1.828800
v 0.000000 0.038100 1.790700
v 0.228600 0.038100 1.828800
v 0.152400 0.038100 1.828800
v 0.019050 0.038100 1.524000
v 0.019050 0.038100 1.828800
v 0.019050 0.038100 1.562100
v 0.019050 0.038100 1.790700
v 0.285750 0.000000 1.524000
v 0.285750 0.038100 1.524000
v 0.285750 0.076200 1.524000
v 0.285750 0.114300 1.524000
v 0.285750 0.152400 1.524000
v 0.285750 0.000000 1.828800
v 0.285750 0.152400 1.828800
v 0.285750 0.152400 1.562100
v 0.285750 0.152400 1.790700
v 0.076200 0.038100 1.828800
v 0.000000 0.152400 1.562100
v 0.000000 0.152400 1.524000
v 0.285750 0.266700 1.524000
v 0.304800 0.266700 1.524000
v 0.304800 0.266700 1.562100
v 0.019050 0.152400 1.562100
v 0.285750 0.266700 1.562100
v 0.019050 0.152400 1.524000
v 0.304800 0.266700 1.790700
v 0.304800 0.266700 1.828800
v 0.000000 0.152400 1.828800
v 0.000000 0.152400 1.790700
v 0.285750 0.266700 1.790700
v 0.019050 0.152400 1.790700
v 0.019050 0.152400 1.828800
v 0.285750 0.266700 1.828800
v 0.304800 0.304800 1.524000
v 0.304800 0.304800 1.562100
v 0.304800 0.304800 1.790700
v 0.304800 0.304800 1.828800
v 0.285750 0.266700 1.562100
v 0.304800 0.266700 1.562100
v 0.000000 0.152400 1.562100
v 0.019050 0.152400 1.562100
v 0.304800 0.304800 1.562100
v 0.304800 0.266700 1.790700
v 0.000000 0.152400 1.790700
v 0.285750 0.266700 1.790700
v 0.019050 0.152400 1.790700
v 0.304800 0.304800 1.790700
v 0.285750 0.266700 1.828800
v 0.304800 0.266700 1.828800
v 0.019050 0.152400 1.828800
v 0.000000 0.152400 1.828800
v 0.304800 0.304800 1.828800
v 0.000000 0.000000 1.695450
vn -0.0000 1.0000 -0.0000
vn -0.0000 -0.0000 1.0000
vn -1.0000 -0.0000 -0.0000
vn -0.0000 -1.0000 -0.0000
vn -0.0000 -0.0000 -1.0000
vn 1.0000 -0.0000 -0.0000
vn 0.3939 -0.9191 -0.0000
vn -0.4472 0.8944 -0.0000
vt 0.509131 0.499502
vt 0.509131 0.583665
vt 0.503897 0.583665
vt 0.503897 0.499502
vt 0.524830 0.499502
vt 0.524830 0.583665
vt 0.514364 0.583665
vt 0.514364 0.499502
vt 0.587628 0.510022
vt 0.587628 0.546844
vt 0.587628 0.583665
vt 0.566696 0.583665
vt 0.566696 0.499502
vt 0.587628 0.499502
vt 0.206558 0.186331
vt 0.206558 0.191591
vt 0.196037 0.191591
vt 0.196037 0.186331
vt 0.185517 0.248639
vt 0.185517 0.332803
vt 0.174996 0.332803
vt 0.174996 0.248639
vt 0.706982 0.573145
vt 0.722755 0.573145
vt 0.722755 0.583665
vt 0.706982 0.583665
vt 0.577591 0.400372
vt 0.577591 0.410892
vt 0.567071 0.410892
vt 0.556550 0.410892
vt 0.546030 0.410892
vt 0.546030 0.400372
vt 0.546030 0.389851
vt 0.567071 0.389851
vt 0.577591 0.389851
vt 0.567071 0.431933
vt 0.556550 0.431933
vt 0.217078 0.186331
vt 0.217078 0.191591
vt 0.217078 0.160030
vt 0.217078 0.170550
vt 0.206558 0.170550
vt 0.206558 0.160030
vt 0.577591 0.431933
vt 0.217078 0.096907
vt 0.217078 0.107427
vt 0.206558 0.107427
vt 0.206558 0.096907
vt 0.196037 0.248639
vt 0.196037 0.332803
vt 0.185517 0.191591
vt 0.185517 0.186331
vt 0.643493 0.703836
vt 0.664522 0.703836
vt 0.664522 0.714357
vt 0.643493 0.714357
vt 0.664522 0.630193
vt 0.643493 0.630193
vt 0.196037 0.170550
vt 0.196037 0.160030
vt 0.132903 0.651234
vt 0.132903 0.714357
vt 0.122388 0.714357
vt 0.111874 0.714357
vt 0.111874 0.640714
vt 0.122388 0.640714
vt 0.132903 0.640714
vt 0.965249 0.107427
vt 0.965249 0.033784
vt 0.975770 0.033784
vt 0.975770 0.107427
vt 0.185517 0.170550
vt 0.185517 0.160030
vt 0.840914 0.934044
vt 0.835653 0.934044
vt 0.835653 0.902482
vt 0.840914 0.902482
vt 0.891678 0.563211
vt 0.891678 0.573731
vt 0.881158 0.573731
vt 0.881158 0.563211
vt 0.174996 0.191591
vt 0.174996 0.186331
vt 0.164476 0.332803
vt 0.164476 0.248639
vt 0.577591 0.452974
vt 0.567071 0.452974
vt 0.567071 0.447714
vt 0.196037 0.149509
vt 0.185517 0.149509
vt 0.206558 0.149509
vt 0.217078 0.149509
vt 0.185517 0.181071
vt 0.174996 0.181071
vt 0.174996 0.170550
vt 0.556550 0.368810
vt 0.567071 0.368810
vt 0.577591 0.368810
vt 0.577591 0.374071
vt 0.577591 0.379331
vt 0.535509 0.389851
vt 0.535509 0.379331
vt 0.535509 0.374071
vt 0.535509 0.368810
vt 0.546030 0.368810
vt 0.196037 0.181071
vt 0.217078 0.181071
vt 0.206558 0.181071
vt 0.189946 0.651234
vt 0.195203 0.651234
vt 0.195203 0.714357
vt 0.189946 0.714357
vt 0.153955 0.332803
vt 0.153955 0.322282
vt 0.153955 0.259160
vt 0.153955 0.248639
vt 0.200460 0.651234
vt 0.200460 0.714357
vt 0.881158 0.500088
vt 0.891678 0.500088
vt 0.179431 0.651234
vt 0.179431 0.714357
vt 0.701725 0.510022
vt 0.706982 0.510022
vt 0.706982 0.499502
vt 0.722755 0.499502
vt 0.701725 0.573145
vt 0.714436 0.976736
vt 0.714436 0.903093
vt 0.724956 0.903093
vt 0.724956 0.976736
vt 0.545763 0.499502
vt 0.545763 0.583665
vt 0.535296 0.583665
vt 0.535296 0.499502
vt 0.179431 0.724877
vt 0.189946 0.724877
vt 0.206558 0.033784
vt 0.206558 0.023264
vt 0.217078 0.023264
vt 0.217078 0.060085
vt 0.111874 0.724877
vt 0.122388 0.724877
vt 0.217078 0.128468
vt 0.206558 0.128468
vt 0.891678 0.489568
vt 0.881158 0.489568
vt 0.679539 0.185517
vt 0.669019 0.185517
vt 0.669019 0.153955
vt 0.679539 0.153955
vt 0.724956 0.892573
vt 0.714436 0.892573
vt 0.132903 0.724877
vt 0.975770 0.023264
vt 0.965249 0.023264
vt 0.206558 0.112688
vt 0.122394 0.259160
vt 0.122394 0.248639
vt 0.179431 0.640714
vt 0.189946 0.640714
vt 0.736587 0.185517
vt 0.726067 0.185517
vt 0.726067 0.153955
vt 0.736587 0.153955
vt 0.195203 0.724877
vt 0.195203 0.640714
vt 0.789125 0.776076
vt 0.778605 0.776076
vt 0.778605 0.770819
vt 0.789125 0.770819
vt 0.789125 0.850721
vt 0.789125 0.855979
vt 0.778605 0.855979
vt 0.778605 0.850721
vt 0.174996 0.112688
vt 0.174996 0.107427
vt 0.769771 0.400372
vt 0.759251 0.400372
vt 0.759251 0.368810
vt 0.769771 0.368810
vt 0.174996 0.096907
vt 0.835740 0.443040
vt 0.825220 0.443040
vt 0.825220 0.411478
vt 0.835740 0.411478
vt 0.143435 0.191591
vt 0.143435 0.186331
vt 0.783865 0.934068
vt 0.778605 0.934068
vt 0.778605 0.902507
vt 0.783865 0.902507
vt 0.939317 0.421999
vt 0.939317 0.411478
vt 0.944574 0.411478
vt 0.944574 0.421999
vt 0.944490 0.901510
vt 0.949747 0.901510
vt 0.949747 0.912031
vt 0.944490 0.912031
vt 0.184691 0.934370
vt 0.179431 0.934370
vt 0.179431 0.902808
vt 0.184691 0.902808
vt 0.503948 0.374071
vt 0.503948 0.368810
vt 0.535509 0.452974
vt 0.535509 0.447714
vt 0.122394 0.332803
vt 0.122394 0.322282
vt 0.174996 0.033784
vt 0.174996 0.023264
vt 0.605599 0.924221
vt 0.600339 0.924221
vt 0.600339 0.892660
vt 0.605599 0.892660
vt 0.111874 0.332803
vt 0.111874 0.322282
vt 0.111874 0.259160
vt 0.111874 0.248639
vt 0.833863 0.327512
vt 0.829158 0.247529
vt 0.826806 0.242824
vt 0.836216 0.238119
vt 0.836216 0.332217
vt 0.111874 0.238119
vt 0.122394 0.238119
vt 0.439715 0.760885
vt 0.439715 0.848876
vt 0.429194 0.848876
vt 0.429194 0.760885
vt 0.600339 0.970749
vt 0.543291 0.971073
vt 0.714436 0.846045
vt 0.714436 0.840787
vt 0.724956 0.840787
vt 0.724956 0.846045
vt 0.836895 0.639603
vt 0.834543 0.634898
vt 0.843952 0.630193
vt 0.843952 0.724291
vt 0.841600 0.719586
vt 0.714436 0.766142
vt 0.724956 0.766142
vt 0.314543 0.912031
vt 0.325064 0.912031
vt 0.325064 0.922551
vt 0.314543 0.922551
vt 0.714436 0.760885
vt 0.724956 0.760885
vt 0.496763 0.760885
vt 0.496763 0.848876
vt 0.486243 0.848876
vt 0.486243 0.760885
vt 0.380314 0.770294
vt 0.375609 0.850277
vt 0.373256 0.854982
vt 0.373256 0.760885
vt 0.382666 0.765590
vt 0.030321 0.723767
vt 0.025616 0.803750
vt 0.023264 0.808454
vt 0.023264 0.714357
vt 0.032674 0.719062
vt 0.196037 0.128468
s 0
usemtl Stairs
f 78/1/1 83/2/1 10/3/1 9/4/1
f 7/5/1 8/6/1 46/7/1 47/8/1
f 53/9/1 123/10/1 3/11/1 4/12/1 2/13/1 1/14/1
f 79/15/2 19/16/2 26/17/2 80/18/2
f 19/19/3 20/20/3 27/21/3 26/22/3
f 77/23/4 59/24/4 14/25/4 75/26/4
f 38/27/5 6/28/5 16/29/5 24/30/5 29/31/5 44/32/5 31/33/5 18/34/5 8/35/5
f 16/29/5 14/36/5 22/37/5 24/30/5
f 78/38/2 9/39/2 19/16/2 79/15/2
f 39/40/2 7/41/2 17/42/2 41/43/2
f 6/28/5 4/44/5 14/36/5 16/29/5
f 53/45/6 1/46/6 11/47/6 54/48/6
f 9/49/3 10/50/3 20/20/3 19/19/3
f 80/18/2 26/17/2 32/51/2 81/52/2
f 60/53/4 61/54/4 24/55/4 22/56/4
f 23/57/4 61/54/4 60/53/4 21/58/4
f 41/43/2 17/42/2 25/59/2 43/60/2
f 55/61/4 64/62/4 68/63/4 63/64/4 28/65/4 45/66/4 30/67/4
f 21/68/6 60/69/6 59/70/6 12/71/6
f 43/60/2 25/59/2 30/72/2 45/73/2
f 57/74/5 85/75/5 94/76/5 92/77/5
f 55/78/6 30/79/6 34/80/6 56/81/6
f 81/52/2 32/51/2 36/82/2 82/83/2
f 26/22/3 27/21/3 33/84/3 32/85/3
f 4/44/5 3/86/5 13/87/5 75/88/5 14/36/5
f 23/89/2 43/60/2 45/73/2 28/90/2
f 15/91/2 41/43/2 43/60/2 23/89/2
f 5/92/2 39/40/2 41/43/2 15/91/2
f 30/72/2 50/93/2 52/94/2 34/95/2
f 27/96/5 20/97/5 10/98/5 83/99/5 46/100/5 8/35/5 18/34/5 31/33/5 35/101/5 51/102/5 84/103/5 37/104/5 33/105/5
f 25/59/2 49/106/2 50/93/2 30/72/2
f 7/41/2 47/107/2 48/108/2 17/42/2
f 17/42/2 48/108/2 49/106/2 25/59/2
f 58/109/4 85/110/4 86/111/4 69/112/4
f 32/85/3 33/84/3 37/113/3 67/114/3 57/115/3 36/116/3
f 85/110/4 57/117/4 67/118/4 86/111/4
f 55/78/6 56/81/6 66/119/6 64/120/6
f 56/121/4 58/109/4 69/112/4 66/122/4
f 54/123/4 76/124/4 74/125/4 12/126/4 59/24/4 77/23/4 71/127/4
f 28/128/6 63/129/6 61/130/6 23/131/6
f 5/132/1 6/133/1 38/134/1 39/135/1
f 35/136/4 66/122/4 69/112/4 51/137/4
f 53/45/6 54/48/6 71/138/6 13/139/6 3/140/6 123/141/6
f 29/142/4 63/64/4 68/63/4 44/143/4
f 2/144/2 5/92/2 15/91/2 12/145/2
f 31/146/6 64/120/6 66/119/6 35/147/6
f 84/148/6 86/149/6 100/150/6 103/151/6
f 24/152/6 61/130/6 63/129/6 29/153/6
f 44/143/4 68/63/4 64/62/4 31/154/4
f 14/155/6 59/70/6 60/69/6 22/156/6
f 83/2/1 78/1/1 47/8/1 46/7/1
f 2/13/1 4/12/1 6/133/1 5/132/1
f 1/46/2 2/144/2 12/145/2 74/157/2 11/47/2
f 36/116/3 57/115/3 92/158/3 91/159/3
f 56/121/4 34/160/4 52/161/4 58/109/4
f 77/162/3 75/163/3 102/164/3 101/165/3
f 39/135/1 38/134/1 8/6/1 7/5/1
f 51/137/4 69/112/4 86/111/4 84/166/4
f 50/93/2 81/52/2 82/83/2 52/94/2
f 58/109/4 52/161/4 82/167/4 85/110/4
f 49/106/2 80/18/2 81/52/2 50/93/2
f 47/107/2 78/38/2 79/15/2 48/108/2
f 48/108/2 79/15/2 80/18/2 49/106/2
f 94/168/4 90/169/4 91/170/4 92/171/4
f 93/172/4 88/173/4 89/174/4 95/175/4
f 11/47/2 74/157/2 95/176/2 89/177/2
f 74/178/3 76/179/3 93/180/3 95/181/3
f 54/48/6 11/47/6 89/177/6 88/182/6
f 85/183/6 82/184/6 90/185/6 94/186/6
f 82/83/2 36/82/2 91/187/2 90/188/2
f 76/189/5 54/190/5 88/191/5 93/192/5
f 103/193/4 100/194/4 96/195/4 97/196/4
f 99/197/4 101/198/4 102/199/4 98/200/4
f 86/201/2 67/202/2 96/203/2 100/204/2
f 37/104/5 84/103/5 103/205/5 97/206/5
f 75/88/5 13/87/5 98/207/5 102/208/5
f 67/114/3 37/113/3 97/209/3 96/210/3
f 13/139/6 71/138/6 99/211/6 98/212/6
f 71/213/2 77/214/2 101/215/2 99/216/2
f 96/210/3 97/209/3 107/217/3 106/218/3
f 91/159/3 92/158/3 105/219/3 104/220/3
f 89/174/4 95/175/4 111/172/4 110/173/4
f 111/221/2 108/222/2 109/223/2 112/224/2 110/225/2
f 95/175/7 90/169/7 108/168/7 111/172/7
f 91/159/6 104/220/6 112/226/6 109/227/6
f 90/169/4 91/170/4 109/171/4 108/168/4
f 104/228/8 89/229/8 110/230/8 112/231/8
f 96/232/1 106/232/1 117/232/1 113/232/1
f 99/233/1 101/233/1 116/233/1 114/233/1
f 100/232/1 96/232/1 113/232/1 115/232/1
f 114/234/4 116/235/4 120/236/4 121/237/4
f 118/238/2 119/239/2 122/240/2 121/241/2 120/242/2
f 116/235/7 115/243/7 118/244/7 120/236/7
f 113/245/6 117/246/6 122/247/6 119/248/6
f 115/243/4 113/249/4 119/250/4 118/244/4
f 117/251/8 114/252/8 121/253/8 122/254/8
f 90/255/5 95/256/5 89/257/5 104/258/5 91/259/5
f 115/260/5 116/261/5 114/262/5 117/263/5 113/264/5
f 12/145/2 15/91/2 23/89/2 21/265/2
l 14 87
l 73 16
l 40 70
l 72 18
l 42 65
l 18 40
l 42 44
l 62 44
